<svg width="215" height="153" viewBox="0 0 215 153" fill="none" xmlns="http://www.w3.org/2000/svg">
<mask id="mask0_2_6414" style="mask-type:luminance" maskUnits="userSpaceOnUse" x="0" y="0" width="215" height="153">
<path d="M0 0H214.91V152.599H0V0Z" fill="white"/>
</mask>
<g mask="url(#mask0_2_6414)">
<g style="mix-blend-mode:multiply" opacity="0.212">
<path fill-rule="evenodd" clip-rule="evenodd" d="M170.275 111.531C165.725 119.234 160.597 124.692 154.26 129.13C149.621 132.38 144.648 134.95 139.373 136.874C133.969 138.844 128.361 140.216 122.643 141.084C114.34 142.345 106.002 142.815 97.5913 142.443C88.2385 142.031 79.1767 140.249 70.5535 136.604C67.3875 135.266 64.2215 133.76 61.4843 131.545C59.4138 129.87 57.0567 128.501 55.1881 126.636C52.4697 123.925 49.88 121.032 47.5842 117.959C42.9654 111.781 40.3253 104.74 39.3785 97.1307C38.8594 92.9674 38.3239 88.7667 38.3506 84.5898C38.3795 80.2569 39.0307 75.9279 39.4993 71.6069C39.8947 67.9474 40.3531 64.2935 40.9033 60.655C41.7083 55.335 42.2994 49.9532 43.5639 44.741C45.1738 38.1032 46.832 31.4104 50.3838 25.4438C53.826 19.6592 58.2582 14.7261 64.154 11.4024C69.3157 8.4928 74.9953 7.25102 81.021 7.33611C87.678 7.42915 93.7122 9.5661 99.338 12.7883C103.447 15.1419 107.216 18.0884 110.713 21.3395C113.594 24.017 116.439 26.7627 119.549 29.1555C122.822 31.6748 126.094 34.2508 129.845 36.0951L145.771 44.0177C150.405 46.3963 154.645 49.3808 158.693 52.6603C162.015 55.3498 164.854 58.4789 167.214 61.9807C171.652 68.5657 174.932 75.6029 175.576 83.6781C175.959 88.4796 176.184 93.2425 175.115 97.9566C174.595 100.254 173.968 102.544 173.154 104.749C172.163 107.434 170.924 110.026 170.275 111.532V111.531Z" fill="#E6A386"/>
</g>
</g>
<path d="M172.652 99.4404H54.7213L37.1191 120.647H157.586L172.652 99.4404Z" stroke="#FA6666" stroke-width="2.23169" stroke-linejoin="round"/>
<path d="M59.4219 99.4404L65.7125 120.074M89.1594 99.4404L96.0218 121.793M118.896 99.4404L126.902 121.793M149.777 99.4404L156.068 120.647" stroke="#FA6666" stroke-width="2.23169" stroke-linecap="round" stroke-linejoin="round"/>
<path d="M164.646 86.832L189.809 121.794" stroke="#FA6666" stroke-width="4.46338" stroke-linecap="round" stroke-linejoin="round"/>
<path d="M166.921 96.0015H170.495C173.58 96.0015 176.082 94.5407 176.082 91.5545C176.082 88.5684 173.58 86.2578 170.495 86.2578H161.785" stroke="#00455D" stroke-width="1.05968" stroke-linecap="round" stroke-linejoin="round"/>
<path d="M166.822 85.6846H165.508H161.785L187.301 120.572C187.301 120.572 188.506 123.143 189.82 122.128C191.133 121.114 189.929 119.592 188.286 117.636C186.643 115.679 165.708 85.9115 165.708 85.9115" stroke="#00455D" stroke-width="1.05968" stroke-linecap="round" stroke-linejoin="round"/>
<path d="M173.796 102.132L158.184 123.367H37.5713C35.1961 123.041 36.1741 121.558 36.1741 121.558L54.7594 98.2939H171.061" stroke="#00455D" stroke-width="1.05968" stroke-linecap="round" stroke-linejoin="round"/>
<path d="M169.792 101.159H152.635L157.629 118.926L169.792 101.159ZM122.326 101.159L127.848 119.5H154.351L149.106 101.159H122.326ZM91.4453 101.159L97.3592 119.354L124.042 119.5L118.128 101.159H91.4453Z" stroke="#00455D" stroke-width="1.05968" stroke-linejoin="round"/>
<path d="M61.1367 101.16L66.8731 119.501H93.7333L87.9975 101.16H61.1367Z" stroke="#353E48" stroke-width="1.05968" stroke-linejoin="round"/>
<path d="M39.9766 120.646L55.0515 101.159H58.0337L63.4235 120.646H39.9766Z" stroke="#00455D" stroke-width="0.967216" stroke-linejoin="round"/>
<path fill-rule="evenodd" clip-rule="evenodd" d="M56.5601 122.079C56.5601 133.316 47.5988 142.426 36.5447 142.426C25.4907 142.426 16.5293 133.316 16.5293 122.079C16.5293 110.842 25.4907 101.732 36.5447 101.732C47.5988 101.732 56.5601 110.842 56.5601 122.079ZM209.821 122.079C209.821 133.316 200.86 142.426 189.806 142.426C178.752 142.426 169.79 133.316 169.79 122.079C169.79 110.842 178.752 101.732 189.806 101.732C200.86 101.732 209.821 110.842 209.821 122.079Z" fill="#FA6666" stroke="#00455D" stroke-width="1.05968" stroke-linejoin="round"/>
<path d="M44.5501 121.792C44.5501 125.908 41.2219 129.243 37.1159 129.243C33.0099 129.243 29.6816 125.908 29.6816 121.792C29.6816 117.677 33.0105 114.342 37.1159 114.342C41.2213 114.342 44.5501 117.677 44.5501 121.792Z" stroke="#00455D" stroke-width="1.05968" stroke-linejoin="round"/>
<path d="M70.8581 121.505C70.8593 122.948 70.2877 124.331 69.2689 125.352C68.2501 126.373 66.8676 126.948 65.4252 126.95C63.9812 126.95 62.5963 126.376 61.5752 125.355C60.5541 124.334 59.9805 122.949 59.9805 121.505C59.9805 120.061 60.5541 118.676 61.5752 117.655C62.5963 116.634 63.9812 116.061 65.4252 116.061C66.8676 116.063 68.2501 116.637 69.2689 117.658C70.2877 118.679 70.8593 120.063 70.8581 121.505Z" fill="#97CAD1"/>
<path d="M70.8581 121.505C70.8593 122.948 70.2877 124.331 69.2689 125.352C68.2501 126.373 66.8676 126.948 65.4252 126.95C63.9812 126.95 62.5963 126.376 61.5752 125.355C60.5541 124.334 59.9805 122.949 59.9805 121.505C59.9805 120.061 60.5541 118.676 61.5752 117.655C62.5963 116.634 63.9812 116.061 65.4252 116.061C66.8676 116.063 68.2501 116.637 69.2689 117.658C70.2877 118.679 70.8593 120.063 70.8581 121.505V121.505Z" stroke="#00455D" stroke-width="1.05968" stroke-linejoin="round"/>
<path d="M101.739 121.505C101.74 122.948 101.169 124.331 100.15 125.352C99.131 126.373 97.7485 126.948 96.3061 126.95C94.8621 126.95 93.4772 126.376 92.4561 125.355C91.435 124.334 90.8613 122.949 90.8613 121.505C90.8613 120.061 91.435 118.676 92.4561 117.655C93.4772 116.634 94.8621 116.061 96.3061 116.061C97.7485 116.063 99.131 116.637 100.15 117.658C101.169 118.679 101.74 120.063 101.739 121.505Z" fill="#97CAD1"/>
<path d="M101.739 121.505C101.74 122.948 101.169 124.331 100.15 125.352C99.131 126.373 97.7485 126.948 96.3061 126.95C94.8621 126.95 93.4772 126.376 92.4561 125.355C91.435 124.334 90.8613 122.949 90.8613 121.505C90.8613 120.061 91.435 118.676 92.4561 117.655C93.4772 116.634 94.8621 116.061 96.3061 116.061C97.7485 116.063 99.131 116.637 100.15 117.658C101.169 118.679 101.74 120.063 101.739 121.505V121.505Z" stroke="#00455D" stroke-width="1.05968" stroke-linejoin="round"/>
<path d="M132.621 121.505C132.622 122.948 132.051 124.331 131.032 125.352C130.013 126.373 128.63 126.948 127.188 126.95C124.188 126.95 121.756 124.512 121.756 121.505C121.756 118.498 124.188 116.061 127.188 116.061C128.63 116.063 130.013 116.637 131.032 117.658C132.051 118.679 132.622 120.063 132.621 121.505Z" fill="#97CAD1"/>
<path d="M132.621 121.505C132.622 122.948 132.051 124.331 131.032 125.352C130.013 126.373 128.63 126.948 127.188 126.95C124.188 126.95 121.756 124.512 121.756 121.505C121.756 118.498 124.188 116.061 127.188 116.061C128.63 116.063 130.013 116.637 131.032 117.658C132.051 118.679 132.622 120.063 132.621 121.505V121.505Z" stroke="#00455D" stroke-width="1.05968" stroke-linejoin="round"/>
<path d="M162.93 121.505C162.932 122.948 162.36 124.331 161.341 125.352C160.322 126.373 158.94 126.948 157.498 126.95C156.053 126.95 154.669 126.376 153.647 125.355C152.626 124.334 152.053 122.949 152.053 121.505C152.053 120.061 152.626 118.676 153.647 117.655C154.669 116.634 156.053 116.061 157.498 116.061C158.94 116.063 160.322 116.637 161.341 117.658C162.36 118.679 162.932 120.063 162.93 121.505Z" fill="#97CAD1"/>
<path d="M162.93 121.506C162.932 122.949 162.36 124.332 161.341 125.353C160.322 126.374 158.94 126.949 157.498 126.951C156.053 126.951 154.669 126.377 153.647 125.356C152.626 124.335 152.053 122.95 152.053 121.506C152.053 120.062 152.626 118.677 153.647 117.656C154.669 116.635 156.053 116.062 157.498 116.062C158.94 116.063 160.322 116.638 161.341 117.659C162.36 118.68 162.932 120.064 162.93 121.506V121.506Z" stroke="#00455D" stroke-width="1.05968" stroke-linejoin="round"/>
<path d="M194.956 121.506C194.957 122.949 194.385 124.332 193.367 125.353C192.348 126.374 190.965 126.949 189.523 126.951C188.079 126.951 186.694 126.377 185.673 125.356C184.652 124.335 184.078 122.95 184.078 121.506C184.078 120.062 184.652 118.677 185.673 117.656C186.694 116.635 188.079 116.062 189.523 116.062C190.965 116.063 192.348 116.638 193.367 117.659C194.385 118.68 194.957 120.064 194.956 121.506V121.506Z" stroke="#353E48" stroke-width="1.05968" stroke-linejoin="round"/>
<path fill-rule="evenodd" clip-rule="evenodd" d="M49.1498 56.4541L43.9824 83.7228C43.9824 83.7228 46.2788 85.7077 47.263 84.9311C48.2473 84.1545 51.1183 80.7888 54.3166 80.875L55.4648 80.9613C55.4648 80.9613 54.9633 77.5099 56.5262 75.2663C58.089 73.0227 65.1438 57.3169 49.1498 56.4541Z" fill="#0098AB"/>
<path fill-rule="evenodd" clip-rule="evenodd" d="M58.2776 96.0814C65.7566 100.643 65.1615 99.1277 66.0964 101.209C67.0313 103.29 74.9352 113.769 74.9352 113.769L79.4395 109.697C79.4395 109.697 68.2209 91.8404 55.3033 81.9169C55.3033 81.9169 52.0738 80.9843 50.8836 82.765C49.6935 84.5457 47.569 86.3276 45.6992 85.9032C45.6992 85.9032 45.9545 90.0597 58.2776 96.0814Z" fill="#F6F7F8"/>
<path fill-rule="evenodd" clip-rule="evenodd" d="M71.4336 83.9648C71.4336 83.9648 76.0933 82.0503 79.1435 82.2244C82.1938 82.3986 84.5656 81.7887 84.5656 81.7887C84.5656 81.7887 86.7684 70.2094 84.1419 68.0333L89.7336 64.8117C89.7336 64.8117 89.1407 53.3202 80.5839 49.5762C80.5839 49.5762 76.2629 50.9694 73.2977 70.1226L71.4336 83.9648ZM72.0054 84.9184C72.0054 84.9184 72.0916 87.6261 73.5626 88.9359C75.0336 90.2458 88.8656 97.4077 88.8656 97.4077C88.8656 97.4077 97.4435 106.492 99.2611 109.374C101.079 112.256 103.5 115.488 103.5 115.488L108.605 111.005C108.605 111.005 101.077 92.5172 84.8975 82.8223C84.8975 82.8223 79.1866 82.735 76.5045 83.4333C73.8224 84.1316 72.0054 84.9184 72.0054 84.9184Z" fill="#EFDECC"/>
<path fill-rule="evenodd" clip-rule="evenodd" d="M104.487 83.2091C104.487 83.2091 103.457 87.1488 104.487 89.0299C105.517 90.9111 120.584 102.306 120.584 102.306L124.617 95.4465L115.173 83.8302C115.173 83.8302 113.051 82.4767 111.989 83.2091C110.928 83.9414 107.871 83.4808 107.224 82.9918C106.578 82.5028 104.487 83.2091 104.487 83.2091Z" fill="#0098AB"/>
<path fill-rule="evenodd" clip-rule="evenodd" d="M114.454 55.3086C114.454 55.3086 119.72 58.5801 119.871 67.0876C120.022 75.5952 120.785 77.1223 120.785 77.1223L122.328 79.2247L119.871 81.7025L116.965 80.2849L116.092 84.5384C116.092 84.5384 114.672 82.6051 112.599 82.6993C110.525 82.7934 109.215 83.696 106.814 82.6993C104.412 81.7025 102.885 82.1785 102.885 82.1785L114.454 55.3086Z" fill="#F6F7F8"/>
<path fill-rule="evenodd" clip-rule="evenodd" d="M127.585 48.4307L125.588 50.1444C125.588 50.1444 126.375 51.7969 125.649 52.8379C125.006 53.7597 124.378 55.1479 123.168 55.309C121.958 55.4701 121.05 56.4498 120.687 57.7959C120.324 59.1421 121.413 61.0402 121.413 61.0402L129.763 49.778L127.585 48.4307Z" fill="white"/>
<path fill-rule="evenodd" clip-rule="evenodd" d="M125.144 47.2946C125.144 47.2946 123.947 52.0462 113.099 49.7651C111.436 49.1973 106.778 50.8464 105.713 51.4806C104.648 52.1148 100.788 52.2357 100.123 49.7651C99.4573 47.2946 102.398 46.7234 103.023 46.7234C103.649 46.7234 105.646 45.2014 104.249 43.5517C103.45 42.7904 106.711 41.9026 109.839 42.5368C112.966 43.1711 117.625 41.5968 120.753 42.3207C123.881 43.0445 125.477 45.9621 125.144 47.2946Z" fill="#EFDECC"/>
<path fill-rule="evenodd" clip-rule="evenodd" d="M130.308 22.0664L117.182 29.6964L132.622 34.6754L130.308 22.0664Z" fill="#FA6666"/>
<path fill-rule="evenodd" clip-rule="evenodd" d="M138.286 59.154C138.286 59.154 134.373 67.3688 133.909 71.9099C133.445 76.451 132.051 87.4041 132.051 87.4041L145.252 85.2671C145.252 85.2671 144.323 82.2617 145.252 79.9239C146.181 77.5861 148.237 70.1065 148.237 70.1065L146.048 68.905L148.635 61.4918C148.635 61.4918 143.395 57.4845 138.286 59.154Z" fill="white"/>
<path fill-rule="evenodd" clip-rule="evenodd" d="M134.91 88.9122C134.91 88.9122 143.541 96.6744 146.787 98.2945L153.21 91.3828L145.484 85.6855L134.91 88.9122Z" fill="#EFDECC"/>
<path fill-rule="evenodd" clip-rule="evenodd" d="M80.6005 38.6873C80.6005 38.6873 80.0814 33.4512 84.5454 32.0654C89.0093 30.6795 92.5912 35.3766 92.5912 35.3766L80.6005 38.6873ZM168.65 120.078L171.166 124.659C171.166 124.659 174.826 121.736 174.902 120.631C174.978 119.525 176.122 119.051 176.427 119.051C176.732 119.051 181.231 113.681 181.231 113.681C181.231 113.681 179.706 111.707 177.952 112.102C176.198 112.496 173.377 114.076 173.377 114.076C173.377 114.076 172.462 118.052 170.48 118.354L168.65 120.078Z" fill="#0098AB"/>
<path d="M129.191 89.123L140.057 97.7202" stroke="#00455D" stroke-width="1.05968" stroke-linecap="round" stroke-linejoin="round"/>
<path d="M116.782 51.2959C116.782 51.2959 115.034 55.3945 113.383 55.4955C112.023 58.362 102.312 83.3944 102.312 83.3944C102.312 83.3944 104.546 82.1901 106.003 82.8981C107.459 83.606 108.722 84.3906 110.664 83.6945C112.606 82.9985 114.936 83.3139 115.908 83.9651L117.753 80.6732" stroke="#00455D" stroke-width="0.967216" stroke-linecap="round" stroke-linejoin="round"/>
<path d="M113.178 63.5936L115.673 75.9717C116.193 77.7133 117.648 80.3029 120.455 81.7228C123.262 83.1427 125.445 85.9701 125.445 87.5778C125.445 89.1854 128.772 89.696 128.772 89.696C128.772 89.696 131.682 87.938 127.524 83.44C123.365 78.942 120.351 76.6445 120.351 76.6445C120.351 76.6445 122.534 59.6 117.752 57.6003M121.203 62.1856L137.196 41.7952C137.196 41.7952 137.299 40.2528 135.132 40.5727L133.378 38.6865C133.378 38.6865 130.185 41.5388 130.44 42.2184C130.695 42.898 132.036 43.4982 130.798 44.9028C129.56 46.3074 125.845 49.7168 125.845 49.7168C125.845 49.7168 126.774 53.6276 124.711 54.1291C122.647 54.6306 119.345 56.4181 120.17 58.7763" stroke="#00455D" stroke-width="1.05968" stroke-linecap="round" stroke-linejoin="round"/>
<path d="M125.759 46.711C125.759 46.711 125.759 40.9401 118.896 40.4062M122.9 44.4186C122.9 44.4186 122.495 41.6747 116.226 42.1909C109.956 42.7071 108.641 42.5171 106.315 42.1263M120.612 44.7386C120.612 44.7386 117.249 43.8769 115.37 44.683C114.182 45.3887 110.325 44.7573 108.149 44.0664C105.973 43.3754 102.312 44.5293 102.312 44.5293M123.472 46.1375C123.472 46.1375 121.282 48.2648 110.135 46.6577C104.763 46.6577 102.312 48.4299 102.312 48.4299M124.043 48.4305C124.043 48.4305 119.978 50.1907 114.722 49.3483C109.466 48.5059 106.887 49.5764 106.887 49.5764" stroke="#00455D" stroke-width="0.967216" stroke-linecap="round" stroke-linejoin="round"/>
<path d="M138.21 110.903C138.21 110.903 142.172 116.84 143.492 116.69C144.813 116.54 146.941 113.233 148.629 113.383C150.316 113.534 151.343 113.773 151.49 114.217C151.637 114.66 144.446 124.807 143.859 124.657C143.271 124.507 140.924 120.373 140.924 120.373L134.908 117.78L136.229 114.736" fill="#0098AB"/>
<path d="M138.21 110.903C138.21 110.903 142.172 116.84 143.492 116.69C144.813 116.54 146.941 113.233 148.629 113.383C150.316 113.534 151.343 113.773 151.49 114.217C151.637 114.66 144.446 124.807 143.859 124.657C143.271 124.507 140.924 120.373 140.924 120.373L134.908 117.78L136.229 114.736" stroke="#00455D" stroke-width="1.05968" stroke-linecap="round" stroke-linejoin="round"/>
<path d="M126.331 85.3985C126.331 86.5064 125.435 87.4044 124.329 87.4044C123.224 87.4044 122.328 86.5064 122.328 85.3985C122.328 84.2906 123.224 83.3926 124.329 83.3926C125.435 83.3926 126.331 84.2906 126.331 85.3985Z" fill="white"/>
<path d="M126.329 85.3965C126.329 86.5044 125.433 87.4024 124.328 87.4024C123.222 87.4024 122.326 86.5044 122.326 85.3965C122.326 84.2886 123.222 83.3906 124.328 83.3906C125.433 83.3906 126.329 84.2886 126.329 85.3965Z" stroke="#00455D" stroke-width="1.05968" stroke-linejoin="bevel"/>
<path d="M135.48 49.5761L131.168 20.3457C131.168 20.3457 117.18 29.1216 117.18 30.3134C117.18 31.5053 134.241 37.4629 134.241 37.4629M120.039 82.2447L123.47 78.8058" stroke="#00455D" stroke-width="1.05968" stroke-linecap="round" stroke-linejoin="round"/>
<path d="M82.614 46.7109C82.614 46.7109 77.5113 51.5714 75.78 59.3806L70.8594 83.089C70.8594 83.089 74.2307 84.2554 78.8785 82.0101C81.4295 80.9317 86.7143 81.381 86.7143 81.381C86.7143 81.381 86.1681 74.9139 87.4433 72.6686" stroke="#00455D" stroke-width="0.967216" stroke-linecap="round" stroke-linejoin="round"/>
<path d="M82.4793 67.9174L91.4174 63.9617C91.4174 63.9617 92.4873 52.1838 81.7253 47.2842M79.4375 59.3202L83.4408 67.3444M91.376 65.625C91.376 65.625 95.8796 77.6134 97.885 80.0674C99.8903 82.5215 100.588 86.4647 99.5414 87.7785C98.4948 89.0923 97.5366 90.3698 96.0543 89.2937C94.572 88.2176 95.4439 87.8364 94.7467 87.2379C94.0496 86.6394 96.3158 83.5188 96.3158 83.5188C96.3158 83.5188 87.5105 77.1737 85.1563 67.8414" stroke="#00455D" stroke-width="0.967216" stroke-linecap="round" stroke-linejoin="round"/>
<path d="M96.0209 85.3985C96.0209 86.5064 95.1246 87.4044 94.0195 87.4044C92.9145 87.4044 92.0176 86.5064 92.0176 85.3985C92.0176 84.2906 92.9139 83.3926 94.0195 83.3926C95.1252 83.3926 96.0209 84.2906 96.0209 85.3985Z" fill="white"/>
<path d="M96.0228 85.3995C96.0228 86.5074 95.1265 87.4054 94.0215 87.4054C92.9164 87.4054 92.0195 86.5074 92.0195 85.3995C92.0195 84.2916 92.9158 83.3936 94.0215 83.3936C95.1271 83.3936 96.0228 84.2916 96.0228 85.3995Z" stroke="#00455D" stroke-width="0.967216" stroke-linejoin="bevel"/>
<path d="M88.5125 53.0164C88.5125 53.0164 86.6444 47.2874 90.1508 46.5732C93.6571 45.859 95.9399 47.2987 96.0216 40.9803M73.1465 40.9809C73.1465 40.9809 81.5173 39.7022 87.5628 37.8223C93.6084 35.9423 94.3055 35.5548 94.3055 35.5548C94.3055 35.5548 92.935 30.6717 86.9938 31.2917C81.0527 31.9118 81.5791 38.5002 81.5791 38.5002" stroke="#00455D" stroke-width="0.967216" stroke-linecap="round" stroke-linejoin="bevel"/>
<path d="M80.6767 39.8337C80.6767 39.8337 79.9466 43.1597 82.5424 43.7451C82.5424 43.7451 81.1855 45.9467 84.0134 45.5065M87.4443 39.2607C87.4443 39.2607 84.8711 41.4028 87.4443 43.2726" stroke="#00455D" stroke-width="0.967216" stroke-linecap="round" stroke-linejoin="round"/>
<path d="M90.3052 38.5753C90.3052 38.5753 90.2257 40.6016 92.1295 40.3917C94.0333 40.1818 94.0333 38.5753 94.0333 38.5753C94.0333 38.5753 95.3023 39.9027 96.4919 39.1346C97.6815 38.3665 97.0473 37.1781 96.4919 36.9688" stroke="#00455D" stroke-width="1.05968" stroke-linecap="round" stroke-linejoin="round"/>
<path d="M72.0079 83.5444C72.0079 83.5444 71.7725 87.4377 74.9169 89.0942C78.0614 90.7506 91.4277 98.3562 91.4277 98.3562L103.536 115.489L109.747 110.365C109.747 110.365 102.828 92.8257 85.6578 81.1006M99.4536 89.1242L110.319 97.7214" stroke="#00455D" stroke-width="0.967216" stroke-linecap="round" stroke-linejoin="round"/>
<path d="M105.742 113.642L107.732 116.365C107.732 116.365 107.075 117.914 107.294 118.431C107.513 118.948 109.929 122.709 110.4 122.34C110.872 121.971 121.962 110.98 122.294 110.02C122.627 109.061 120.321 107.546 118.663 108.193L111.017 111.201L110.4 109.83" fill="#0098AB"/>
<path d="M105.744 113.642L107.734 116.365C107.734 116.365 107.077 117.914 107.296 118.431C107.515 118.948 109.931 122.709 110.402 122.34C110.874 121.971 121.964 110.98 122.296 110.02C122.629 109.061 120.323 107.546 118.665 108.193L111.019 111.201L110.402 109.83" stroke="#353E48" stroke-width="0.967216" stroke-linecap="round" stroke-linejoin="round"/>
<path d="M110.647 111.476C110.647 111.476 112.206 115.897 107.461 116.634" stroke="#353E48" stroke-width="0.967216" stroke-linecap="round" stroke-linejoin="round"/>
<path d="M82.0655 83.9639L80.582 87.3988L87.1279 91.4338C88.5177 92.2144 90.6853 92.2587 91.4478 90.9902" stroke="#00455D" stroke-width="0.967216" stroke-linecap="round" stroke-linejoin="round"/>
<path d="M83.4425 84.5371L82.2988 87.976" stroke="#00455D" stroke-width="0.967216" stroke-linecap="round" stroke-linejoin="round"/>
<path d="M53.3808 51.8691C53.3808 51.8691 48.6757 55.0187 45.3611 80.5379C44.8267 84.122 44.8267 89.2258 49.3712 91.7236L65.0373 100.303L74.6607 113.768C74.6607 113.768 79.0452 111.054 80.0073 108.664C80.0073 108.664 69.6351 92.4837 58.6213 83.3613" stroke="#00455D" stroke-width="1.05968" stroke-linecap="round" stroke-linejoin="bevel"/>
<path d="M52.5835 55.8809C52.5835 55.8809 65.3292 60.5019 59.7001 71.5702C59.7001 71.5702 57.0736 74.7356 56.8597 81.3677C56.8597 81.3677 51.8381 80.8373 50.8766 82.6061C49.9151 84.3749 48.1673 86.0546 46.3321 85.6127C44.4969 85.1708 43.3601 84.6398 42.8359 85.1708" stroke="#00455D" stroke-width="0.967216" stroke-linecap="round" stroke-linejoin="bevel"/>
<path d="M50.2942 57.6006C50.2942 57.6006 49.5681 69.172 56.3233 75.9771C63.0785 82.7823 66.0335 86.1842 66.0335 86.1842L64.8728 87.0624L67.9333 89.6963C67.9333 89.6963 69.7276 86.5138 67.3002 83.4403C64.8728 80.3668 56.8781 69.2821 56.8781 69.2821V60.6117" stroke="#00455D" stroke-width="0.967216" stroke-linecap="round" stroke-linejoin="round"/>
<path d="M50.8444 42.3791C50.8444 42.3791 52.3965 37.3632 57.3324 37.5459C62.2683 37.7286 64.1188 42.5618 64.1188 43.5648C64.1188 44.5677 64.6475 45.2978 64.559 47.0303C64.4705 48.7628 63.9843 54.5082 60.1291 53.8694C56.2738 53.2307 58.9957 59.8934 58.9957 59.8934M49.1289 44.4185C49.1289 44.4185 49.2236 49.0362 54.2759 50.7233M63.4256 43.2817C63.4256 43.2817 59.8755 42.9209 58.2786 46.7115" stroke="#00455D" stroke-width="1.05968" stroke-linecap="round" stroke-linejoin="bevel"/>
<path d="M66.284 85.3985C66.284 86.5064 65.3883 87.4044 64.2826 87.4044C63.177 87.4044 62.2812 86.5064 62.2812 85.3985C62.2812 84.2906 63.1776 83.3926 64.2826 83.3926C65.3877 83.3926 66.284 84.2906 66.284 85.3985Z" fill="white"/>
<path d="M66.284 85.3985C66.284 86.5064 65.3883 87.4044 64.2826 87.4044C63.177 87.4044 62.2812 86.5064 62.2812 85.3985C62.2812 84.2906 63.1776 83.3926 64.2826 83.3926C65.3877 83.3926 66.284 84.2906 66.284 85.3985Z" stroke="#00455D" stroke-width="0.967216" stroke-linejoin="bevel"/>
<path d="M68.5723 87.9775L80.0092 97.1482" stroke="#00455D" stroke-width="0.967216" stroke-linecap="round" stroke-linejoin="bevel"/>
<path d="M77.7227 112.249L79.8046 116.48C79.8046 116.48 79.0904 118.239 80.1716 119.233C80.843 119.853 81.4729 120.517 82.0573 121.22L84.471 118.62C84.471 118.62 84.5573 116.988 84.9566 116.734C85.356 116.48 89.8965 114.417 91.4475 110.824C91.4475 110.824 90.6652 107.461 85.6777 110.365C83.5861 111.359 82.7011 111.894 82.7011 111.894C82.7011 111.894 81.5745 115.41 80.6895 115.945" fill="#0098AB"/>
<path d="M77.7207 112.25L79.8026 116.481C79.8026 116.481 79.0884 118.24 80.1697 119.234C80.841 119.854 81.4709 120.518 82.0553 121.221L84.4691 118.621C84.4691 118.621 84.5553 116.989 84.9547 116.735C85.3541 116.481 89.8946 114.418 91.4455 110.825C91.4455 110.825 90.6632 107.462 85.6757 110.366C83.5841 111.36 82.6992 111.895 82.6992 111.895C82.6992 111.895 81.5725 115.411 80.6876 115.946" stroke="#353E48" stroke-width="0.967216" stroke-linecap="round" stroke-linejoin="round"/>
<path d="M172.053 113.77C172.053 113.77 172.557 117.017 169.221 117.208" stroke="#353E48" stroke-width="0.967216" stroke-linecap="round" stroke-linejoin="round"/>
<path d="M134.336 85.1105C134.336 85.1105 136.354 66.5967 138.1 63.3371C139.847 60.0775 143.629 53.7602 141.468 50.7497C139.307 47.7391 137.362 44.9396 138.226 44.1556C139.09 43.3716 147.411 40.8602 148.059 41.7339C148.707 42.6075 152.058 49.6735 152.058 50.6169C152.058 51.5603 152.382 54.5686 148.275 55.5755C146.654 56.3641 146.979 59.858 146.979 59.858M140.626 59.319C140.626 59.319 147.946 60.179 155.374 67.2536C162.803 74.3282 171.105 80.9682 171.542 82.2883C171.979 83.6084 173.181 88.6538 169.467 87.1136C167.718 86.1237 168.156 83.3054 168.156 83.3054L141.501 65.9222" stroke="#00455D" stroke-width="1.05968" stroke-linecap="round" stroke-linejoin="round"/>
<path d="M149.205 70.7823L146.345 81.6718M141.568 83.0855C141.568 83.0855 146.499 82.4836 146.389 83.0855C146.28 83.6874 148.014 86.7524 149.503 87.1756C150.992 87.5988 154.936 89.8799 154.278 90.8578C153.621 91.8358 147.595 99.4391 147.595 99.4391C147.595 99.4391 135.323 90.7336 134.337 88.3516M132.049 87.9761L144.63 85.1107M145.774 47.2832L149.777 46.1367M147.483 49.0026C147.483 49.0026 145.687 49.4145 145.777 50.654C145.867 51.8935 147.204 52.4415 148.062 52.4415" stroke="#00455D" stroke-width="1.05968" stroke-linecap="round" stroke-linejoin="round"/>
<path fill-rule="evenodd" clip-rule="evenodd" d="M121.184 101.423L124.623 103.536C124.623 103.536 126.654 106.397 129.19 108.373C131.727 110.349 136.401 113.768 136.401 113.768L138.339 110.29L126.174 95.4281L121.184 101.423ZM149.777 97.2281L157.341 101.96L168.302 118.354C168.302 118.354 173.012 117.494 171.85 114.407C170.627 111.16 162.529 97.2281 162.529 97.2281L154.102 91.9893L149.777 97.2281Z" fill="#97CAD1"/>
<path d="M164.818 119.313C164.818 119.313 166.869 118.001 168.057 119.313C169.245 120.626 170.108 123.58 171.08 122.814C172.052 122.048 181.23 111.437 181.23 111.437C181.23 111.437 180.042 109.915 177.882 110.183C175.723 110.451 171.611 113.416 171.611 113.416L163.306 97.641C162.118 95.2227 156.068 91.4162 156.068 91.4162M149.205 97.721L157.481 102.147L168.649 118.354M121.938 102.023C121.938 102.023 124.105 103.718 125.059 104.086C125.059 104.086 126.356 107.696 128.276 108.654C129.829 109.655 136.359 114.915 136.359 114.915L138.339 111.158C138.339 111.158 122.638 88.6155 118.896 86.2579M104.411 82.2461C104.411 82.2461 103.07 87.9683 105.403 90.5619C107.736 93.1555 120.643 102.306 120.643 102.306L126.33 95.4615" stroke="#00455D" stroke-width="1.05968" stroke-linecap="round" stroke-linejoin="round"/>
</svg>
