<svg display="none" xmlns="http://www.w3.org/2000/svg" aria-hidden="true"
    style="position: absolute; width: 0; height: 0; overflow: hidden;"
    version="1.1">

    <symbol id="pen" viewBox="0 0 23 23">
        <path fill-rule="evenodd" clip-rule="evenodd"
            d="M13.5205 3.79967C14.2364 3.0837 15.3972 3.0837 16.1132 3.79967L17.4096 5.09603C18.1256 5.81199 18.1256 6.97279 17.4096 7.68875L16.1132 8.98511L12.2242 5.09603L13.5205 3.79967ZM11.5759 5.74419L15.465 9.63328L7.9553 17.143C7.78339 17.3149 7.55024 17.4115 7.30712 17.4115H4.25607C4.00293 17.4115 3.79773 17.2062 3.79773 16.9531V13.9021C3.79773 13.6589 3.8943 13.4258 4.06622 13.2539L11.5759 5.74419ZM4.37402 18.5449C3.99433 18.5449 3.68652 18.8527 3.68652 19.2324C3.68652 19.6122 3.99433 19.9199 4.37402 19.9199H17.6657C18.0454 19.9199 18.3532 19.6122 18.3532 19.2324C18.3532 18.8527 18.0454 18.5449 17.6657 18.5449H4.37402Z" />
    </symbol>

    <symbol id="calendar" viewBox="0 0 20 20">
        <path fill-rule="evenodd" clip-rule="evenodd"
            d="M15.8333 4.58301H4.16667C3.93655 4.58301 3.75 4.76956 3.75 4.99967V15.833C3.75 16.0631 3.93655 16.2497 4.16667 16.2497H15.8333C16.0634 16.2497 16.25 16.0631 16.25 15.833V4.99967C16.25 4.76956 16.0634 4.58301 15.8333 4.58301ZM4.16667 3.33301C3.24619 3.33301 2.5 4.0792 2.5 4.99967V15.833C2.5 16.7535 3.24619 17.4997 4.16667 17.4997H15.8333C16.7538 17.4997 17.5 16.7535 17.5 15.833V4.99967C17.5 4.0792 16.7538 3.33301 15.8333 3.33301H4.16667Z" />
        <path
            d="M5 2.50033C5 2.04009 5.3731 1.66699 5.83333 1.66699C6.29357 1.66699 6.66667 2.04009 6.66667 2.50033V3.33366C6.66667 3.79389 6.29357 4.16699 5.83333 4.16699C5.3731 4.16699 5 3.79389 5 3.33366V2.50033Z" />
        <path
            d="M13.333 2.50033C13.333 2.04009 13.7061 1.66699 14.1663 1.66699C14.6266 1.66699 14.9997 2.04009 14.9997 2.50033V3.33366C14.9997 3.79389 14.6266 4.16699 14.1663 4.16699C13.7061 4.16699 13.333 3.79389 13.333 3.33366V2.50033Z" />
        <path fill-rule="evenodd" clip-rule="evenodd"
            d="M15 7.29199C15 7.63717 14.7202 7.91699 14.375 7.91699H5.625C5.27983 7.91699 5 7.63717 5 7.29199C5 6.94682 5.27983 6.66699 5.625 6.66699H14.375C14.7202 6.66699 15 6.94682 15 7.29199Z" />
    </symbol>

    <symbol id="done" viewBox="0 0 20 20">
        <path fill-rule="evenodd" clip-rule="evenodd"
            d="M10.0003 17.0837C13.9123 17.0837 17.0837 13.9123 17.0837 10.0003C17.0837 6.08831 13.9123 2.91699 10.0003 2.91699C6.08831 2.91699 2.91699 6.08831 2.91699 10.0003C2.91699 13.9123 6.08831 17.0837 10.0003 17.0837ZM10.0003 18.3337C14.6027 18.3337 18.3337 14.6027 18.3337 10.0003C18.3337 5.39795 14.6027 1.66699 10.0003 1.66699C5.39795 1.66699 1.66699 5.39795 1.66699 10.0003C1.66699 14.6027 5.39795 18.3337 10.0003 18.3337Z" />
        <path fill-rule="evenodd" clip-rule="evenodd"
            d="M15.4419 7.05806C15.686 7.30213 15.686 7.69786 15.4419 7.94194L9.65916 13.7247C8.92691 14.4569 7.73974 14.457 7.00751 13.7247L4.55806 11.2752C4.31398 11.0312 4.31398 10.6355 4.55806 10.3914C4.80213 10.1473 5.19786 10.1473 5.44194 10.3914L7.89139 12.8408C8.13546 13.0849 8.53116 13.0849 8.77525 12.8408L14.5581 7.05806C14.8022 6.81398 15.1978 6.81398 15.4419 7.05806Z" />
    </symbol>

    <symbol id="free" viewBox="0 0 21 20">
        <path fill-rule="evenodd" clip-rule="evenodd"
            d="M13.4938 4.99967C14.1107 4.99967 14.6493 4.66451 14.9375 4.16634H16.8271C17.2874 4.16634 17.6605 4.53944 17.6605 4.99967V6.77136C16.2228 7.14139 15.1605 8.44651 15.1605 9.99967C15.1605 11.5528 16.2228 12.8579 17.6605 13.228V14.9997C17.6605 15.4599 17.2874 15.833 16.8271 15.833H14.9375C14.6493 15.3348 14.1107 14.9997 13.4938 14.9997C12.8769 14.9997 12.3383 15.3348 12.0501 15.833H3.49382C3.03358 15.833 2.66048 15.4599 2.66048 14.9997V13.228C4.09817 12.8579 5.16048 11.5528 5.16048 9.99967C5.16048 8.44651 4.09817 7.14139 2.66048 6.77136V4.99967C2.66048 4.53944 3.03358 4.16634 3.49382 4.16634H12.0501C12.3383 4.66451 12.8769 4.99967 13.4938 4.99967ZM15.9938 9.99967C15.9938 8.61892 17.1131 7.49967 18.4938 7.49967V4.99967C18.4938 4.0792 17.7476 3.33301 16.8271 3.33301H14.3271C14.3271 3.79324 13.9541 4.16634 13.4938 4.16634C13.0336 4.16634 12.6605 3.79324 12.6605 3.33301H3.49382C2.57334 3.33301 1.82715 4.0792 1.82715 4.99967V7.49967C3.20786 7.49967 4.32715 8.61892 4.32715 9.99967C4.32715 11.3804 3.20786 12.4997 1.82715 12.4997V14.9997C1.82715 15.9202 2.57334 16.6663 3.49382 16.6663H12.6605C12.6605 16.2061 13.0336 15.833 13.4938 15.833C13.9541 15.833 14.3271 16.2061 14.3271 16.6663H16.8271C17.7476 16.6663 18.4938 15.9202 18.4938 14.9997V12.4997C17.1131 12.4997 15.9938 11.3804 15.9938 9.99967ZM13.4938 7.49967C13.9541 7.49967 14.3271 7.12658 14.3271 6.66634C14.3271 6.20611 13.9541 5.83301 13.4938 5.83301C13.0336 5.83301 12.6605 6.20611 12.6605 6.66634C12.6605 7.12658 13.0336 7.49967 13.4938 7.49967ZM13.4938 10.833C13.9541 10.833 14.3271 10.4599 14.3271 9.99967C14.3271 9.53942 13.9541 9.16634 13.4938 9.16634C13.0336 9.16634 12.6605 9.53942 12.6605 9.99967C12.6605 10.4599 13.0336 10.833 13.4938 10.833ZM14.3271 13.333C14.3271 13.7933 13.9541 14.1663 13.4938 14.1663C13.0336 14.1663 12.6605 13.7933 12.6605 13.333C12.6605 12.8728 13.0336 12.4997 13.4938 12.4997C13.9541 12.4997 14.3271 12.8728 14.3271 13.333Z" />
    </symbol>

    <symbol id="camera" viewBox="0 0 16 16">
        <path fill-rule="evenodd" clip-rule="evenodd"
            d="M2.66634 2.66699C1.92996 2.66699 1.33301 3.26395 1.33301 4.00033V12.0003C1.33301 12.7367 1.92996 13.3337 2.66634 13.3337H9.33301C10.0694 13.3337 10.6663 12.7367 10.6663 12.0003V10.1249C10.6663 10.0717 10.7257 10.0399 10.77 10.0694L13.6299 11.976C14.0729 12.2714 14.6663 11.9538 14.6663 11.4213V4.57934C14.6663 4.04687 14.0729 3.72928 13.6299 4.02464L10.77 5.93123C10.7257 5.96077 10.6663 5.92901 10.6663 5.87576V4.00033C10.6663 3.26395 10.0694 2.66699 9.33301 2.66699H2.66634Z" />
    </symbol>

    <symbol id="trees" viewBox="0 0 21 20">
        <g clip-path="url(#clip0_2_2343)">
            <g clip-path="url(#clip1_2_2343)">
                <g clip-path="url(#clip2_2_2343)">
                    <path fill-rule="evenodd" clip-rule="evenodd"
                        d="M6.1843 2.68751L4.25307 5.08415C5.06068 5.50521 5.40802 6.58812 4.82221 7.42399L3.28025 9.62418H8.79283L7.25087 7.42399C6.61434 6.51574 7.07956 5.31582 8.03985 4.99025L6.1843 2.68751ZM9.89813 4.90572L6.57363 0.780027C6.37349 0.531658 5.9951 0.531658 5.79497 0.780027L2.47046 4.90572L2.46134 4.91704L2.30679 5.10884L1.91746 5.592C1.73999 5.81224 1.78757 6.10482 1.96584 6.27246C2.00873 6.3128 2.05918 6.3459 2.11589 6.36902C2.17352 6.39253 2.23762 6.40572 2.30679 6.40572H2.92729H3.17361H3.18815H3.36926H3.51195C3.59288 6.40572 3.64029 6.49684 3.59384 6.56311L3.51195 6.67996L2.79086 7.70887L2.6529 7.90572L1.44856 9.62418L1.44602 9.6278L1.35829 9.75297L0.948836 10.3372C0.716606 10.6686 0.953654 11.1241 1.35829 11.1241H2.07173H2.22458H2.22901H5.30712V13.8339C4.92691 13.7959 4.54123 13.7764 4.15101 13.7764C3.44817 13.7764 2.76007 13.8395 2.09206 13.9604C1.66285 14.038 1.41973 14.4833 1.5555 14.8978C1.67808 15.272 2.06769 15.4857 2.45586 15.4194C3.00631 15.3254 3.57259 15.2764 4.15101 15.2764C7.34934 15.2764 10.1983 16.7791 12.0279 19.1212C12.2362 19.3878 12.5863 19.5081 12.9078 19.4028C13.3826 19.2473 13.5834 18.6848 13.2797 18.2881C12.5986 17.3984 11.7903 16.6112 10.8821 15.9535C12.7031 14.0276 15.2822 12.8259 18.142 12.8259C18.6303 12.8259 19.1104 12.8609 19.58 12.9286C20.0529 12.9968 20.5006 12.6459 20.5006 12.1681C20.5006 11.8186 20.2558 11.5145 19.9104 11.4612C19.334 11.3721 18.7434 11.3259 18.142 11.3259C17.7586 11.3259 17.3796 11.3447 17.0058 11.3814V9.21914H18.6882H18.6926H18.8455H19.5589C19.9635 9.21914 20.2006 8.76355 19.9684 8.43218L19.5589 7.84794L19.4712 7.72277L19.4686 7.71914L18.8625 6.85429L18.7246 6.65744L18.0035 5.62853L17.9216 5.51168C17.8751 5.44541 17.9225 5.35429 18.0035 5.35429H18.1275H18.142H18.1462H18.3884H19.0089C19.1633 5.35429 19.2924 5.28852 19.3809 5.18909C19.4094 5.15704 19.4337 5.12149 19.4532 5.08352C19.538 4.91886 19.5336 4.70865 19.3982 4.54057L19.0089 4.05741L18.8543 3.86561L18.8452 3.85429L16.4112 0.833738C16.2111 0.585369 15.8327 0.585369 15.6325 0.833738L13.1986 3.85429L13.1894 3.86561L13.0349 4.05741L12.6456 4.54057C12.5769 4.62573 12.542 4.7217 12.5352 4.81709C12.5344 4.82831 12.534 4.83952 12.534 4.8507C12.5333 5.10965 12.7371 5.35429 13.0349 5.35429H13.6554H13.7982C13.8319 5.35429 13.8599 5.37013 13.8776 5.39341L13.8809 5.39811C13.9027 5.43038 13.9059 5.47486 13.8801 5.51168L13.7982 5.62853L13.0771 6.65744L13.0349 6.71767L12.9406 6.85223L12.333 7.71914L12.3305 7.72277L12.2428 7.84794L11.8333 8.43218C11.6011 8.76355 11.8381 9.21914 12.2428 9.21914H12.9562H13.1091H13.1135H15.5058V11.6297C13.2351 12.1628 11.224 13.3694 9.69479 15.0273C9.65859 15.0665 9.62785 15.1074 9.60227 15.1494C8.73198 14.6795 7.79417 14.3186 6.80712 14.085V11.1241H9.84408H9.84851H10.0014H10.7148C11.1194 11.1241 11.3564 10.6686 11.1242 10.3372L10.7148 9.75297L10.627 9.6278L10.6245 9.62418L9.42018 7.90572L9.28223 7.70887L8.56113 6.67996L8.47924 6.56311C8.4328 6.49684 8.48021 6.40572 8.56113 6.40572H8.70382H9.18045H9.19499H9.4413H9.96026H10.0618C10.1066 6.40572 10.1493 6.40018 10.1895 6.38988C10.5259 6.30366 10.6865 5.88418 10.4511 5.592L10.0618 5.10884L9.90725 4.91704L9.89813 4.90572ZM14.8261 4.22522L16.0219 2.74122L17.1268 4.11237C16.4176 4.57839 16.1413 5.5851 16.6932 6.37256L17.6369 7.71914H14.1647L15.1085 6.37256C15.6192 5.64377 15.4206 4.72719 14.8261 4.22522Z"
                        fill="#31775A" />
                </g>
            </g>
        </g>
        <defs>
            <clipPath id="clip0_2_2343">
                <rect width="20" height="20" fill="white" transform="translate(0.5)" />
            </clipPath>
            <clipPath id="clip1_2_2343">
                <rect width="20" height="20" fill="white" transform="translate(0.5)" />
            </clipPath>
            <clipPath id="clip2_2_2343">
                <rect width="20" height="20" fill="white" transform="translate(0.5)" />
            </clipPath>
        </defs>
    </symbol>

    <symbol id="pizza" viewBox="0 0 21 20">
        <g clip-path="url(#clip0_2_2349)">
            <g clip-path="url(#clip1_2_2349)">
                <path fill-rule="evenodd" clip-rule="evenodd"
                    d="M1.17773 17.2594C1.63284 17.4689 2.09631 17.6635
2.56749 17.8423C5.00026 18.7656 7.63873 19.2711 10.3953 19.2711C13.1528 19.2711 15.7922 18.7652
18.2257 17.8413C18.6968 17.6624 19.1602 17.4678 19.6153 17.2582L18.9029 15.9347L17.9662
14.1945L17.1895 12.7513L11.2486 1.71424L10.3968 0.131836L9.54508 1.71424L1.89016 15.9358L1.17773
17.2594ZM10.3968 3.29665L15.7784 13.2946C14.0875 13.8599 12.278 14.1661 10.397 14.1661C8.51586
14.1661 6.70628 13.8598 5.01536 13.2945L10.3968 3.29665ZM10.397 15.7997C8.23548 15.7997 6.16014
15.4309 4.23044 14.7528L3.28504 16.5092C5.49937 17.3251 7.89387 17.7711 10.3953 17.7711C12.8977
17.7711 15.2931 17.3248 17.5081 16.5082L16.5633 14.7529C14.6336 15.4309 12.5584 15.7997 10.397
15.7997ZM12.0003 12.0002C12.5526 12.0002 13.0003 11.5525 13.0003 11.0002C13.0003 10.4479 12.5526
10.0002 12.0003 10.0002C11.448 10.0002 11.0002 10.4479 11.0002 11.0002C11.0002 11.5525 11.448
12.0002 12.0003 12.0002ZM9.68702 12.0002C9.68702 12.5525 9.2393 13.0002 8.68702 13.0002C8.13473
13.0002 7.68702 12.5525 7.68702 12.0002C7.68702 11.4479 8.13473 11.0002 8.68702 11.0002C9.2393
11.0002 9.68702 11.4479 9.68702 12.0002ZM10.3259 9.00024C10.8782 9.00024 11.326 8.55253 11.326
8.00024C11.326 7.44795 10.8782 7.00024 10.3259 7.00024C9.77365 7.00024 9.32593 7.44795 9.32593
8.00024C9.32593 8.55253 9.77365 9.00024 10.3259 9.00024Z"
                    fill="#7A1D47" />
            </g>
        </g>
        <defs>
            <clipPath id="clip0_2_2349">
                <rect width="20" height="20" fill="white" transform="translate(0.5)" />
            </clipPath>
            <clipPath id="clip1_2_2349">
                <rect width="19" height="20" fill="white" transform="translate(1)" />
            </clipPath>
        </defs>

    </symbol>

    <symbol id="toy" viewBox="0 0 21 20">
        <g clip-path="url(#clip0_2_2355)">
            <g clip-path="url(#clip1_2_2355)">
                <path fill-rule="evenodd" clip-rule="evenodd"
                    d="M6.48055 2.23279L7.4342 3.25464C7.47739 3.28616 7.51863 3.32209 7.55738 3.36256L8.9404 4.8067L10.0873 2.23278L6.48055 2.23279ZM4.76999 2.39852L6.0178 3.73557L2.00999 12.4472C1.85335 12.7876 1.92171 13.1894 2.18214 13.4588L3.52487 14.8484C3.54528 14.8774 3.56821 14.9052 3.59371 14.9315L7.2598 18.7116C7.55942 19.0205 7.97144 19.1948 8.40182 19.1948H13.2446C13.5852 19.1948 13.8673 18.9453 13.9183 18.619C14.0173 18.5562 14.1065 18.4725 14.1789 18.3679L18.8745 11.5877C19.2624 11.0276 18.9176 10.277 18.2787 10.1731L17.1855 6.81745C16.9894 6.21569 16.2538 5.9934 15.7573 6.3859L11.3023 9.90783C11.2073 9.98283 11.1333 10.0687 11.0783 10.161H8.15996C8.12417 10.161 8.08913 10.1629 8.05489 10.1667L9.7102 6.42452C9.73917 6.35902 9.7599 6.29137 9.77262 6.22294C9.81751 6.16549 9.85647 6.10123 9.88802 6.03039L11.6178 2.14823C11.8857 1.54697 11.4456 0.869138 10.7874 0.869141L5.43461 0.869163C4.63973 0.869167 4.22766 1.8174 4.76999 2.39852ZM12.2652 17.8312L7.44227 11.6281C7.43496 11.6187 7.42788 11.6093 7.42101 11.5997L5.80509 15.2529L8.23868 17.7622C8.28148 17.8063 8.34034 17.8312 8.40182 17.8312H12.2652ZM3.37871 12.7347L7.0232 4.81287L8.31821 6.20049L4.78441 14.1895L3.37871 12.7347ZM9.08913 11.5246L13.4103 17.0826L17.2557 11.5301H11.866C11.8305 11.5301 11.7958 11.5282 11.762 11.5246H9.08913ZM16.8406 10.161H13.1808L16.0911 7.86034L16.8406 10.161Z"
                    fill="#FFAD43" />
            </g>
        </g>
        <defs>
            <clipPath id="clip0_2_2355">
                <rect width="20" height="20" fill="white" transform="translate(0.5)" />
            </clipPath>
            <clipPath id="clip1_2_2355">
                <rect width="18.1818" height="20" fill="white" transform="translate(1.40918)" />
            </clipPath>
        </defs>
    </symbol>

    <symbol id="ball" viewBox="0 0 21 20">
        <g clip-path="url(#clip0_2_2362)">
            <g clip-path="url(#clip1_2_2362)">
                <path fill-rule="evenodd" clip-rule="evenodd"
                    d="M12.3128 18.3063C11.7287 18.4332 11.1221 18.5 10.5 18.5C9.8517 18.5 9.22034 18.4274 8.61362 18.2899L7.82814 15.7803L8.76671 14.1547H12.2985L13.06 15.9188L12.3128 18.3063ZM14.0691 17.7166C14.807 17.3748 15.4876 16.9302 16.0925 16.4012L14.4975 16.3479L14.0691 17.7166ZM17.4146 14.9446C18.2858 13.7286 18.8441 12.2732 18.9719 10.6961L16.6987 8.95736L14.8645 9.45598L13.6265 13.4464L14.2273 14.838L17.4146 14.9446ZM18.9103 8.76047C18.7803 7.87102 18.5126 7.02628 18.1295 6.2486L17.646 7.79343L18.9103 8.76047ZM17.0712 4.60804L16.1498 7.55216L14.4263 8.02065L11.3119 5.65083V3.87196L13.7491 2.14306C15.051 2.68205 16.1899 3.53522 17.0712 4.60804ZM11.9011 1.61492L10.685 2.47764L9.4852 1.55995C9.81795 1.52036 10.1566 1.5 10.5 1.5C10.9772 1.5 11.4453 1.53933 11.9011 1.61492ZM7.89409 0.342926C7.31595 0.49847 6.75832 0.704392 6.22662 0.955974C5.10584 1.48645 4.09987 2.21945 3.25498 3.10724L3.25364 3.10729C2.80425 3.57948 2.40055 4.09555 2.04961 4.64842L2.051 4.64837C1.0688 6.19581 0.5 8.03148 0.5 10C0.5 10.0577 0.500489 10.1153 0.501462 10.1727L0.5 10.1738C0.510166 10.7709 0.572653 11.3552 0.683073 11.9223L0.684391 11.9213C0.914448 13.1035 1.35276 14.2112 1.95958 15.2048L1.95802 15.2049C2.2765 15.7264 2.64141 16.2164 3.04699 16.6693L3.04859 16.6692C4.21639 17.9731 5.72139 18.9686 7.42648 19.5188C7.97174 19.6947 8.5377 19.8256 9.11939 19.9059C9.57072 19.9682 10.0315 20 10.5 20C16.0228 20 20.5 15.5228 20.5 10C20.5 4.47715 16.0228 0 10.5 0C9.59853 0 8.72492 0.119283 7.89409 0.342926ZM6.85063 17.6789L6.49847 16.5538L5.14222 16.5992C5.664 17.0233 6.23704 17.3868 6.85063 17.6789ZM3.73375 15.1454L6.51639 15.0523L7.52893 13.2986L6.35618 9.5184L4.4823 9.0163L2.04506 10.8805C2.20904 12.4739 2.81314 13.9367 3.73375 15.1454ZM2.06055 8.9802L3.3494 7.99436L3.34972 7.99317L2.82986 6.33223C2.43769 7.15088 2.17272 8.04206 2.06055 8.9802ZM3.88052 4.66732L4.78068 7.54334L6.71952 8.06285L9.81194 5.70974V3.69837L7.60096 2.0072C6.12853 2.54137 4.84564 3.47083 3.88052 4.66732ZM12.3016 12.6547H9.30111L8.81211 12.3723L7.80391 9.12258L10.6006 6.99447L13.3974 9.12258L12.3016 12.6547Z"
                    fill="#008294" />
            </g>
        </g>
        <defs>
            <clipPath id="clip0_2_2362">
                <rect width="20" height="20" fill="white" transform="translate(0.5)" />
            </clipPath>
            <clipPath id="clip1_2_2362">
                <rect width="20" height="20" fill="white" transform="translate(0.5)" />
            </clipPath>
        </defs>
    </symbol>

    <symbol id="flower" viewBox="0 0 21 20">
        <g clip-path="url(#clip0_2_2368)">
            <path fill-rule="evenodd" clip-rule="evenodd"
                d="M12.4851 15.6191C13.2281 14.133 13.729 11.9799 13.729 9.52372C13.729 6.50381 11.8472 3.73955 10.489 2.16396C10.4633 2.1341 10.4423 2.12176 10.4303 2.11627C10.4173 2.11032 10.4058 2.10826 10.3956 2.10826C10.3855 2.10826 10.3739 2.11032 10.3609 2.11627C10.349 2.12176 10.328 2.1341 10.3022 2.16396C8.94405 3.73955 7.0623 6.50381 7.0623 9.52372C7.0623 11.9799 7.56313 14.133 8.30621 15.6191C9.09201 17.1908 9.91328 17.619 10.3956 17.619C10.8779 17.619 11.6993 17.1908 12.4851 15.6191ZM15.15 9.16145C15.7191 9.03235 16.2808 8.95477 16.8096 8.91208C17.1918 7.50276 17.1335 5.98761 16.9683 4.82781C16.9636 4.79541 16.955 4.78018 16.9516 4.77497C16.9476 4.76879 16.944 4.7658 16.9413 4.76407C16.9385 4.76234 16.9342 4.76033 16.927 4.75937C16.9208 4.75856 16.9033 4.75724 16.872 4.76698C16.1223 5.00054 15.2489 5.34596 14.4205 5.83447C14.2432 5.37977 14.042 4.94301 13.8266 4.52747C14.7544 3.99736 15.6918 3.63835 16.4472 3.40305C17.3534 3.12076 18.2488 3.68676 18.3826 4.62639C18.542 5.74589 18.6329 7.31004 18.2897 8.87237C18.3307 8.87338 18.3711 8.87457 18.411 8.87589C19.3596 8.9074 20.019 9.73648 19.8363 10.6678C19.503 12.3665 18.6751 14.9963 16.6417 16.6135C14.5237 18.2982 12.2049 19.1849 10.5008 19.1115C8.79663 19.1849 6.47784 18.2982 4.35976 16.6135C2.32648 14.9963 1.49853 12.3665 1.16525 10.6678C0.982516 9.73648 1.64195 8.9074 2.59054 8.87589C2.63044 8.87457 2.67088 8.87338 2.71184 8.87237C2.36871 7.31004 2.45951 5.74589 2.61894 4.62639C2.75277 3.68676 3.64823 3.12076 4.5544 3.40305C5.26558 3.6246 6.13826 3.95584 7.01236 4.43633C6.79466 4.84909 6.59063 5.28333 6.40973 5.73579C5.63322 5.29902 4.82774 4.98449 4.12951 4.76698C4.09826 4.75724 4.08077 4.75856 4.0746 4.75937C4.06732 4.76033 4.06306 4.76234 4.06032 4.76407C4.05757 4.7658 4.05393 4.76879 4.04994 4.77497C4.04655 4.78018 4.03786 4.79541 4.03325 4.82781C3.86807 5.98761 3.80968 7.50276 4.19197 8.91208C4.65611 8.94956 5.1456 9.0139 5.64317 9.11638C5.79962 5.73196 7.8642 2.80427 9.22018 1.23122C9.85408 0.495843 10.9372 0.495842 11.5711 1.23122C12.9331 2.81124 15.0099 5.75797 15.15 9.16145ZM13.3485 16.9958C14.3132 15.4688 14.9753 13.2103 15.1252 10.6391C16.254 10.3349 17.4198 10.2723 18.3636 10.3037C18.3963 10.3048 18.4123 10.3117 18.4179 10.3146C18.4245 10.3178 18.4278 10.3211 18.4298 10.3237C18.4318 10.3262 18.4343 10.3303 18.436 10.3374C18.4376 10.3434 18.4408 10.3607 18.4344 10.3928C18.1183 12.004 17.3745 14.2053 15.7525 15.4955C14.9371 16.1441 14.1172 16.6407 13.3485 16.9958ZM7.35394 16.8517C6.67347 16.5104 5.95956 16.0607 5.24903 15.4955C3.62704 14.2053 2.88321 12.004 2.5671 10.3928C2.56079 10.3607 2.56399 10.3434 2.56547 10.3374C2.5672 10.3303 2.56967 10.3262 2.57169 10.3237C2.57371 10.3211 2.57707 10.3178 2.58363 10.3146C2.58919 10.3117 2.60527 10.3048 2.63797 10.3037C3.52236 10.2743 4.60174 10.3273 5.66293 10.5845C5.80224 13.0985 6.43081 15.3173 7.35394 16.8517Z"
                fill="#31775A" />
        </g>
        <defs>
            <clipPath id="clip0_2_2368">
                <rect width="20" height="20" fill="white" transform="translate(0.5)" />
            </clipPath>
        </defs>
    </symbol>

    <symbol id="robot" viewBox="0 0 21 20">
        <g clip-path="url(#clip0_2_2373)">
            <g clip-path="url(#clip1_2_2373)">
                <g clip-path="url(#clip2_2_2373)">
                    <path fill-rule="evenodd" clip-rule="evenodd"
                        d="M15.936 9.49228H17.1463C18.3827 9.49228 19.3529 10.5527 19.2434 11.7843L18.5905 19.1172C18.5542 19.5245 18.2131 19.8367 17.8041 19.8367C17.3405 19.8367 16.9766 19.439 17.0178 18.9772L17.6706 11.6443C17.698 11.3364 17.4555 11.0712 17.1463 11.0712H2.801C2.49189 11.0712 2.24935 11.3364 2.27676 11.6443L2.92957 18.9772C2.97067 19.439 2.60685 19.8367 2.1432 19.8367C1.73432 19.8367 1.39309 19.5245 1.35684 19.1172L0.704027 11.7843C0.594392 10.5527 1.5646 9.49228 2.801 9.49228H3.90922C3.80382 8.7406 3.75041 8.03174 3.75041 7.40746C3.75041 6.99176 3.77409 6.58426 3.82104 6.18776H1.28947C0.853459 6.18776 0.5 5.83431 0.5 5.39829C0.5 4.96228 0.853459 4.60882 1.28947 4.60882H3.92105C3.99706 4.60882 4.07057 4.61956 4.14013 4.63962C4.93196 2.02291 6.91295 0.182617 9.92262 0.182617C12.9453 0.182617 14.9303 2.03874 15.7153 4.67335C15.8113 4.63184 15.9172 4.60882 16.0284 4.60882H18.66C19.096 4.60882 19.4495 4.96228 19.4495 5.39829C19.4495 5.83431 19.096 6.18776 18.66 6.18776H16.0284L16.0242 6.18775C16.0712 6.58426 16.0948 6.99175 16.0948 7.40746C16.0948 8.03174 16.0415 8.7406 15.936 9.49228ZM14.3403 9.49228C14.4567 8.73123 14.5159 8.01795 14.5159 7.40746C14.5159 5.68244 14.0427 4.24994 13.2714 3.28412C12.5309 2.35717 11.4445 1.76156 9.92262 1.76156C8.40072 1.76156 7.31429 2.35717 6.57393 3.28412C5.80251 4.24994 5.32936 5.68244 5.32936 7.40746C5.32936 8.01795 5.38847 8.73123 5.50497 9.49228H14.3403ZM8.77868 6.16445C8.77868 6.45512 8.54304 6.69076 8.25237 6.69076C7.96168 6.69076 7.72605 6.45512 7.72605 6.16445C7.72605 5.87378 7.96168 5.63813 8.25237 5.63813C8.54304 5.63813 8.77868 5.87378 8.77868 6.16445ZM9.83132 6.16445C9.83132 7.03648 9.12439 7.7434 8.25237 7.7434C7.38034 7.7434 6.67342 7.03648 6.67342 6.16445C6.67342 5.29242 7.38034 4.5855 8.25237 4.5855C9.12439 4.5855 9.83132 5.29242 9.83132 6.16445ZM11.6971 6.69076C11.9877 6.69076 12.2234 6.45512 12.2234 6.16445C12.2234 5.87378 11.9877 5.63813 11.6971 5.63813C11.4064 5.63813 11.1707 5.87378 11.1707 6.16445C11.1707 6.45512 11.4064 6.69076 11.6971 6.69076ZM11.6971 7.7434C12.5691 7.7434 13.276 7.03648 13.276 6.16445C13.276 5.29242 12.5691 4.5855 11.6971 4.5855C10.825 4.5855 10.1181 5.29242 10.1181 6.16445C10.1181 7.03648 10.825 7.7434 11.6971 7.7434ZM5.88292 15.2633V14.2107H9.04081V15.2633H5.88292ZM4.30397 13.158C4.30397 12.8674 4.53961 12.6317 4.83028 12.6317H10.0934C10.3841 12.6317 10.6198 12.8674 10.6198 13.158V16.3159C10.6198 16.6066 10.3841 16.8423 10.0934 16.8423H4.83028C4.53961 16.8423 4.30397 16.6066 4.30397 16.3159V13.158ZM11.4328 13.5988C11.4328 13.1628 11.7863 12.8093 12.2223 12.8093H14.8539C15.2899 12.8093 15.6434 13.1628 15.6434 13.5988C15.6434 14.0348 15.2899 14.3883 14.8539 14.3883H12.2223C11.7863 14.3883 11.4328 14.0348 11.4328 13.5988ZM12.2223 14.9598C11.7863 14.9598 11.4328 15.3133 11.4328 15.7493C11.4328 16.1853 11.7863 16.5388 12.2223 16.5388H14.8539C15.2899 16.5388 15.6434 16.1853 15.6434 15.7493C15.6434 15.3133 15.2899 14.9598 14.8539 14.9598H12.2223Z"
                        fill="#7A1D47" />
                </g>
            </g>
        </g>
        <defs>
            <clipPath id="clip0_2_2373">
                <rect width="20" height="20" fill="white" transform="translate(0.5)" />
            </clipPath>
            <clipPath id="clip1_2_2373">
                <rect width="20" height="20" fill="white" transform="translate(0.5)" />
            </clipPath>
            <clipPath id="clip2_2_2373">
                <rect width="20" height="20" fill="white" transform="translate(0.5)" />
            </clipPath>
        </defs>
    </symbol>

    <symbol id="masks" viewBox="0 0 21 20">
        <g clip-path="url(#clip0_2_2379)">
            <g clip-path="url(#clip1_2_2379)">
                <g clip-path="url(#clip2_2_2379)">
                    <path fill-rule="evenodd" clip-rule="evenodd"
                        d="M6.51855 14.6421C6.51855 14.6421 6.51856 14.6422 6.51855 14.6421C7.00641 14.8105 7.51755 14.9188 8.04083 14.9604C8.04082 14.9604 8.04084 14.9604 8.04083 14.9604C7.51755 14.9188 7.00641 14.8105 6.51855 14.6421ZM8.90627 14.9682C8.90625 14.9682 8.90628 14.9682 8.90627 14.9682V14.9682ZM11.0423 19.7197C8.96294 19.1626 7.41583 17.6104 6.77605 15.7127C7.30727 15.8479 7.85749 15.9228 8.41682 15.9316C9.01123 17.0775 10.0668 17.9794 11.4121 18.3398C13.9524 19.0205 16.5636 17.513 17.2443 14.9727L18.6 9.91307C18.668 9.65907 18.5173 9.39793 18.2632 9.32987L15.6754 8.63646C15.6642 8.12919 15.5985 7.61579 15.474 7.10352L18.6329 7.94997C19.6491 8.22224 20.2521 9.2667 19.9799 10.2828L18.6242 15.3424C17.7392 18.6449 14.3447 20.6046 11.0423 19.7197ZM10.0523 15.7888C9.81827 16.0229 9.46209 16.0605 9.18874 15.9016C9.48522 15.8739 9.78296 15.8274 10.0805 15.7611C10.0711 15.7702 10.0617 15.7794 10.0523 15.7888ZM12.3523 15.1725C12.1992 15.1315 12.0431 15.106 11.8863 15.0961C12.4351 14.805 12.9356 14.4472 13.3801 14.0358C13.768 14.2214 14.1232 14.4721 14.4297 14.7786C14.9025 15.2514 15.2426 15.8404 15.4157 16.4864C15.5178 16.8674 15.2917 17.2591 14.9106 17.3612C14.5296 17.4633 14.1379 17.2372 14.0358 16.8561C13.9276 16.4524 13.7151 16.0843 13.4196 15.7888C13.1241 15.4933 12.7559 15.2807 12.3523 15.1725ZM14.2138 13.4034C14.1716 13.3613 14.1314 13.3172 14.0936 13.2714C14.4326 12.8501 14.7229 12.3919 14.9587 11.9063C15.0235 11.9836 15.0728 12.076 15.1007 12.1798C15.1223 12.2606 15.1648 12.3342 15.224 12.3934C15.283 12.4524 15.3566 12.495 15.4374 12.5166C15.5182 12.5382 15.6032 12.5382 15.6839 12.5166C15.7646 12.495 15.8383 12.4524 15.8974 12.3934C16.1763 12.1144 16.6285 12.1144 16.9075 12.3934C17.1864 12.6723 17.1864 13.1245 16.9075 13.4034C16.6711 13.6399 16.3766 13.8099 16.0537 13.8965C15.7307 13.983 15.3906 13.983 15.0677 13.8965C14.7447 13.8099 14.4503 13.6399 14.2138 13.4034Z"
                        fill="#FFAD43" />
                    <path fill-rule="evenodd" clip-rule="evenodd"
                        d="M11.1932 2.15816L2.91382 4.37661C2.65979 4.44467 2.50904 4.70579 2.57711 4.95983L3.93283 10.0194C4.6135 12.5597 7.22463 14.0673 9.76494 13.3866C12.3052 12.7059 13.8128 10.0948 13.1321 7.55449L11.7764 2.49488C11.7084 2.24084 11.4472 2.09009 11.1932 2.15816ZM2.54409 2.99671C1.52795 3.26899 0.924942 4.31344 1.19721 5.32956L2.55293 10.3892C3.43781 13.6915 6.83228 15.6513 10.1347 14.7665C13.4371 13.8816 15.3968 10.4872 14.512 7.18475L13.1563 2.12514C12.884 1.10901 11.8396 0.505997 10.8234 0.778267L2.54409 2.99671Z"
                        fill="#FFAD43" />
                    <path fill-rule="evenodd" clip-rule="evenodd"
                        d="M5.49343 6.64401C5.43302 6.6602 5.3764 6.68813 5.32679 6.72619C5.27718 6.76426 5.23555 6.81173 5.20428 6.86589C5.17301 6.92004 5.15272 6.97982 5.14456 7.04182C5.13639 7.10382 5.14053 7.16682 5.15671 7.22722C5.25881 7.60827 5.03268 7.99995 4.65163 8.10204C4.27059 8.20415 3.87892 7.97801 3.77681 7.59697C3.71208 7.35536 3.69556 7.10336 3.72821 6.85536C3.76086 6.60737 3.84203 6.36822 3.9671 6.1516C4.09218 5.93498 4.25868 5.74511 4.45713 5.59283C4.65558 5.44056 4.88207 5.32886 5.12369 5.26412C5.3653 5.19938 5.6173 5.18286 5.8653 5.21552C6.1133 5.24817 6.35243 5.32934 6.56906 5.45441C6.78568 5.57948 6.97556 5.74598 7.12782 5.94443C7.2801 6.14288 7.39179 6.36938 7.45654 6.61099C7.55863 6.99204 7.33251 7.38371 6.95146 7.48581C6.57041 7.58791 6.17874 7.36178 6.07664 6.98074C6.06045 6.92033 6.03253 6.86371 5.99446 6.81409C5.95639 6.76448 5.90893 6.72285 5.85478 6.69158C5.80061 6.66032 5.74083 6.64002 5.67883 6.63186C5.61683 6.6237 5.55383 6.62783 5.49343 6.64401Z"
                        fill="#FFAD43" />
                    <path fill-rule="evenodd" clip-rule="evenodd"
                        d="M10.0931 5.4116C9.97105 5.44428 9.86704 5.52409 9.80389 5.63347C9.74075 5.74284 9.72363 5.87282 9.75632 5.99482C9.85842 6.37585 9.63229 6.76753 9.25124 6.86962C8.8702 6.97173 8.47853 6.7456 8.37643 6.36455C8.24568 5.8766 8.31413 5.35667 8.56672 4.91919C8.8193 4.48169 9.23534 4.16245 9.7233 4.0317C10.2112 3.90096 10.7311 3.96941 11.1687 4.222C11.6062 4.47458 11.9254 4.89061 12.0561 5.37858C12.1583 5.75962 11.9321 6.15129 11.5511 6.2534C11.17 6.35549 10.7784 6.12937 10.6763 5.74832C10.6435 5.62633 10.5637 5.52232 10.4544 5.45917C10.3451 5.39602 10.2151 5.37891 10.0931 5.4116Z"
                        fill="#FFAD43" />
                    <path fill-rule="evenodd" clip-rule="evenodd"
                        d="M5.25608 9.88759C5.53503 9.60864 5.98729 9.60864 6.26623 9.88759C6.62087 10.2422 7.06262 10.4972 7.54705 10.627C8.0315 10.7568 8.54158 10.7568 9.02603 10.627C9.51046 10.4972 9.95221 10.2422 10.3068 9.88759C10.6615 9.53292 10.9165 9.09118 11.0463 8.60674C11.1484 8.22569 11.5401 7.99956 11.9211 8.10167C12.3021 8.20376 12.5283 8.59543 12.4262 8.97648C12.2315 9.70311 11.8489 10.3658 11.317 10.8977C10.785 11.4297 10.1224 11.8123 9.39576 12.0069C8.6691 12.2017 7.90398 12.2017 7.17731 12.0069C6.45064 11.8123 5.78803 11.4297 5.25608 10.8977C4.97714 10.6187 4.97714 10.1665 5.25608 9.88759Z"
                        fill="#FFAD43" />
                </g>
            </g>
        </g>
        <defs>
            <clipPath id="clip0_2_2379">
                <rect width="20" height="20" fill="white" transform="translate(0.5)" />
            </clipPath>
            <clipPath id="clip1_2_2379">
                <rect width="20" height="20" fill="white" transform="translate(0.5)" />
            </clipPath>
            <clipPath id="clip2_2_2379">
                <rect width="20" height="20" fill="white" transform="translate(0.5)" />
            </clipPath>
        </defs>
    </symbol>

    <symbol id="cube" viewBox="0 0 21 20" fill="none">
        <g clip-path="url(#clip0_2_2390)">
            <g clip-path="url(#clip1_2_2390)">
                <path
                    d="M17.7775 0.833008H2.2219C1.45483 0.833008 0.833008 1.45483 0.833008 2.2219V17.7775C0.833008 18.5445 1.45483 19.1663 2.2219 19.1663H17.7775C18.5445 19.1663 19.1663 18.5445 19.1663 17.7775V2.2219C19.1663 1.45483 18.5445 0.833008 17.7775 0.833008Z"
                    stroke="#008294" stroke-width="1.66667" />
                <path
                    d="M10.0036 11.6663C10.9241 11.6663 11.6702 10.9201 11.6702 9.99967C11.6702 9.0792 10.9241 8.33301 10.0036 8.33301C9.08311 8.33301 8.33691 9.0792 8.33691 9.99967C8.33691 10.9201 9.08311 11.6663 10.0036 11.6663Z"
                    fill="#008294" />
                <path
                    d="M14.4333 16.1038C15.3537 16.1038 16.0999 15.3576 16.0999 14.4372C16.0999 13.5167 15.3537 12.7705 14.4333 12.7705C13.5128 12.7705 12.7666 13.5167 12.7666 14.4372C12.7666 15.3576 13.5128 16.1038 14.4333 16.1038Z"
                    fill="#008294" />
                <path
                    d="M5.56706 7.22982C6.48753 7.22982 7.23372 6.48363 7.23372 5.56315C7.23372 4.64268 6.48753 3.89648 5.56706 3.89648C4.64658 3.89648 3.90039 4.64268 3.90039 5.56315C3.90039 6.48363 4.64658 7.22982 5.56706 7.22982Z"
                    fill="#008294" />
            </g>
        </g>
        <defs>
            <clipPath id="clip0_2_2390">
                <rect width="20" height="20" fill="white" />
            </clipPath>
            <clipPath id="clip1_2_2390">
                <rect width="20" height="20" fill="white" />
            </clipPath>
        </defs>
    </symbol>

    <symbol id="bigSearch" viewBox="0 0 41 41" fill="none">
        <g clip-path="url(#clip0_2_2412)">
            <g clip-path="url(#clip1_2_2412)">
                <g clip-path="url(#clip2_2_2412)">
                    <path
                        d="M16.2694 0.650391C24.8956 0.650391 31.8885 7.64328 31.8885 16.2694C31.8885 19.6418 30.8197 22.7644 29.0026 25.3172L40.7763 37.0949L37.0949 40.7763L25.3172 29.0026C22.7644 30.8197 19.6418 31.8885 16.2694 31.8885C7.64328 31.8885 0.650391 24.8956 0.650391 16.2694C0.650391 7.64328 7.64328 0.650391 16.2694 0.650391ZM16.2694 5.85674C10.5187 5.85674 5.85674 10.5187 5.85674 16.2694C5.85674 22.0202 10.5187 26.6821 16.2694 26.6821C22.0202 26.6821 26.6821 22.0202 26.6821 16.2694C26.6821 10.5187 22.0202 5.85674 16.2694 5.85674Z"
                        fill="#008294" />
                </g>
            </g>
        </g>
        <defs>
            <clipPath id="clip0_2_2412">
                <rect width="41" height="41" fill="white" />
            </clipPath>
            <clipPath id="clip1_2_2412">
                <rect width="41" height="41" fill="white" />
            </clipPath>
            <clipPath id="clip2_2_2412">
                <rect width="41" height="41" fill="white" />
            </clipPath>
        </defs>
    </symbol>

    <symbol id="plus" viewBox="0 0 41 41" fill="none">
        <g clip-path="url(#clip0_2_2422)">
            <g clip-path="url(#clip1_2_2422)">
                <g clip-path="url(#clip2_2_2422)">
                    <path
                        d="M20.5 0C22.387 0 23.9167 1.5297 23.9167 3.41667V17.0833H37.5833C39.4703 17.0833 41 18.613 41 20.5C41 22.387 39.4703 23.9167 37.5833 23.9167H23.9167V37.5833C23.9167 39.4703 22.387 41 20.5 41C18.613 41 17.0833 39.4703 17.0833 37.5833V23.9167H3.41667C1.5297 23.9167 0 22.387 0 20.5C0 18.613 1.5297 17.0833 3.41667 17.0833H17.0833V3.41667C17.0833 1.5297 18.613 0 20.5 0Z"
                        fill="#008294" />
                </g>
            </g>
        </g>
        <defs>
            <clipPath id="clip0_2_2422">
                <rect width="41" height="41" fill="white" />
            </clipPath>
            <clipPath id="clip1_2_2422">
                <rect width="41" height="41" fill="white" />
            </clipPath>
            <clipPath id="clip2_2_2422">
                <rect width="41" height="41" fill="white" />
            </clipPath>
        </defs>
    </symbol>

    <symbol id="facebook" viewBox="0 0 30 30" fill="none">
        <path fill-rule="evenodd" clip-rule="evenodd"
            d="M27.5 15.076C27.5 8.13101 21.903 2.5 15 2.5C8.09698 2.5 2.5 8.13101 2.5 15.076C2.5 21.3525 7.07043 26.5555 13.0471 27.5V18.7121H9.87238V15.076H13.0471V12.3047C13.0471 9.15315 14.9139 7.41115 17.7686 7.41115C19.1361 7.41115 20.5671 7.65697 20.5671 7.65697V10.7519H18.9902C17.4381 10.7519 16.9529 11.7211 16.9529 12.7168V15.0759H20.4194L19.8656 18.712H16.9529V27.4999C22.9295 26.5571 27.5 21.3542 27.5 15.076Z"
            fill="#D9D9D9" />
    </symbol>

    <symbol id="twitter" viewBox="0 0 30 30" fill="none">
        <path
            d="M27.5 7.40507C26.5801 7.81301 25.5916 8.08872 24.5541 8.21271C25.6131 7.57791 26.4264 6.57275 26.8094 5.3751C25.8184 5.96282 24.7206 6.38969 23.5524 6.61975C22.6166 5.62293 21.2838 5 19.8085 5C16.9759 5 14.6792 7.29645 14.6792 10.1289C14.6792 10.5309 14.7248 10.9224 14.8121 11.2978C10.5494 11.0839 6.77009 9.04194 4.24037 5.93886C3.79887 6.69639 3.54594 7.57745 3.54594 8.51741C3.54594 10.2968 4.45151 11.8668 5.82775 12.7865C4.98693 12.7599 4.19611 12.5291 3.50451 12.145C3.50415 12.1664 3.50415 12.1879 3.50415 12.2095C3.50415 14.6946 5.27214 16.7676 7.61851 17.2388C7.18809 17.356 6.73497 17.4186 6.26715 17.4186C5.93666 17.4186 5.61532 17.3865 5.30222 17.3266C5.95486 19.3644 7.84904 20.8472 10.0935 20.8886C8.33809 22.2642 6.1265 23.0842 3.72353 23.0842C3.30956 23.0842 2.90126 23.06 2.5 23.0126C4.76984 24.4679 7.46589 25.317 10.3624 25.317C19.7965 25.317 24.9555 17.5015 24.9555 10.7237C24.9555 10.5013 24.9505 10.2801 24.9406 10.0602C25.9427 9.33702 26.8124 8.43365 27.5 7.40507Z"
            fill="#D9D9D9" />
    </symbol>

    <symbol id="youTube" viewBox="0 0 30 30" fill="none">
        <path
            d="M15 5C2.715 5 2.5 6.0925 2.5 14.625C2.5 23.1575 2.715 24.25 15 24.25C27.285 24.25 27.5 23.1575 27.5 14.625C27.5 6.0925 27.285 5 15 5ZM19.0063 15.0425L13.3938 17.6625C12.9025 17.89 12.5 17.635 12.5 17.0925V12.1575C12.5 11.6162 12.9025 11.36 13.3938 11.5875L19.0063 14.2075C19.4975 14.4375 19.4975 14.8125 19.0063 15.0425Z"
            fill="#D9D9D9" />
    </symbol>

    <symbol id="instagram" viewBox="0 0 30 30" fill="none">
        <path fill-rule="evenodd" clip-rule="evenodd"
            d="M24.1561 19.5454C24.1061 20.6424 23.9226 21.2384 23.7704 21.6343C23.5658 22.1591 23.3216 22.5344 22.9257 22.928C22.5344 23.3216 22.1591 23.5651 21.6343 23.7675C21.2384 23.9221 20.6401 24.1061 19.5432 24.1584C18.3572 24.2106 18.0059 24.2217 14.9986 24.2217C11.9941 24.2217 11.6399 24.2106 10.454 24.1584C9.35708 24.1061 8.76163 23.9221 8.36574 23.7675C7.83813 23.5651 7.46564 23.3216 7.072 22.928C6.67557 22.5344 6.43151 22.1591 6.22969 21.6343C6.07732 21.2384 5.8911 20.6424 5.84381 19.5454C5.78601 18.3595 5.77542 18.0026 5.77542 15.0014C5.77542 11.9941 5.78601 11.6399 5.84381 10.454C5.8911 9.35708 6.07732 8.76162 6.22969 8.3624C6.43151 7.83812 6.67557 7.46505 7.072 7.07141C7.46564 6.67836 7.83813 6.43426 8.36574 6.22969C8.76163 6.07457 9.35708 5.89331 10.454 5.84106C11.6399 5.78878 11.9941 5.77542 14.9986 5.77542C18.0059 5.77542 18.3572 5.78878 19.5432 5.84106C20.6401 5.89331 21.2384 6.07457 21.6343 6.22969C22.1591 6.43426 22.5344 6.67836 22.9257 7.07141C23.3216 7.46505 23.5658 7.83812 23.7704 8.3624C23.9226 8.76162 24.1061 9.35708 24.1561 10.454C24.2113 11.6399 24.2245 11.9941 24.2245 15.0014C24.2245 18.0026 24.2113 18.3595 24.1561 19.5454ZM26.1816 10.3617C26.1266 9.16301 25.9375 8.34406 25.6567 7.63076C25.371 6.89074 24.9879 6.26359 24.3608 5.63645C23.7364 5.01209 23.1092 4.62901 22.3692 4.33991C21.6531 4.06191 20.837 3.87064 19.6378 3.81839C18.4385 3.76055 18.0554 3.75 14.9986 3.75C11.9446 3.75 11.5588 3.76055 10.3595 3.81839C9.16301 3.87064 8.34739 4.06191 7.62796 4.33991C6.89074 4.62901 6.26359 5.01209 5.63924 5.63645C5.01209 6.26359 4.629 6.89074 4.34045 7.63076C4.06245 8.34406 3.87342 9.16301 3.81559 10.3617C3.76334 11.561 3.75 11.9446 3.75 15.0014C3.75 18.0554 3.76334 18.4385 3.81559 19.6378C3.87342 20.8342 4.06245 21.6526 4.34045 22.3692C4.629 23.1065 5.01209 23.7364 5.63924 24.3608C6.26359 24.9851 6.89074 25.371 7.62796 25.6595C8.34739 25.9375 9.16301 26.1266 10.3595 26.1816C11.5588 26.2366 11.9446 26.25 14.9986 26.25C18.0554 26.25 18.4385 26.2366 19.6378 26.1816C20.837 26.1266 21.6531 25.9375 22.3692 25.6595C23.1092 25.371 23.7364 24.9851 24.3608 24.3608C24.9879 23.7364 25.371 23.1065 25.6567 22.3692C25.9375 21.6526 26.1266 20.8342 26.1816 19.6378C26.2366 18.4385 26.25 18.0554 26.25 15.0014C26.25 11.9446 26.2366 11.561 26.1816 10.3617ZM22.3559 8.99508C22.3559 8.2473 21.7499 7.6435 21.0049 7.6435C20.2599 7.6435 19.6532 8.2473 19.6532 8.99508C19.6532 9.7401 20.2599 10.3439 21.0049 10.3439C21.7499 10.3439 22.3559 9.7401 22.3559 8.99508ZM11.2491 15.0014C11.2491 17.0712 12.9286 18.7481 14.9986 18.7481C17.0691 18.7481 18.7509 17.0712 18.7509 15.0014C18.7509 12.9281 17.0691 11.2491 14.9986 11.2491C12.9286 11.2491 11.2491 12.9281 11.2491 15.0014ZM9.22365 15.0014C9.22365 11.8106 11.8078 9.22089 14.9986 9.22089C18.1894 9.22089 20.7764 11.8106 20.7764 15.0014C20.7764 18.1894 18.1894 20.7764 14.9986 20.7764C11.8078 20.7764 9.22365 18.1894 9.22365 15.0014Z"
            fill="#D9D9D9" />
    </symbol>

    <symbol id="tikTok" viewBox="0 0 30 30" fill="none">
        <path
            d="M19.9693 10.1337C19.0929 9.56389 18.4634 8.6495 18.2653 7.58589C18.2219 7.35254 18.1974 7.11649 18.1974 6.875H15.4028L15.3973 18.0729C15.3512 19.3264 14.3174 20.333 13.0531 20.333C12.6597 20.333 12.2906 20.2354 11.965 20.0644C11.2162 19.671 10.7061 18.8869 10.7061 17.986C10.7061 16.6917 11.7588 15.6362 13.0558 15.6362C13.2973 15.6362 13.5306 15.677 13.7477 15.7448V13.5551V12.8931C13.5198 12.8632 13.2891 12.8416 13.0558 12.8416C10.2204 12.8416 7.91406 15.1479 7.91406 17.9832C7.91406 19.7225 8.78233 21.2636 10.1091 22.1944C10.9448 22.7804 11.9596 23.125 13.0558 23.125C15.8912 23.125 18.1974 20.8187 18.1974 17.9832V12.3043C19.2937 13.0911 20.6368 13.5551 22.0857 13.5551V11.3845V10.7632C21.3042 10.7605 20.5771 10.5298 19.9693 10.1337Z"
            fill="#D9D9D9" />
    </symbol>

    <symbol id="googlePlay" viewBox="0 0 140 40" fill="none">
        <g clip-path="url(#clip0_4_7330)">
            <g clip-path="url(#clip1_4_7330)">
                <path
                    d="M132.5 0H7.5C4.73858 0 2.5 2.23858 2.5 5V35C2.5 37.7614 4.73858 40 7.5 40H132.5C135.261 40 137.5 37.7614 137.5 35V5C137.5 2.23858 135.261 0 132.5 0Z"
                    fill="black" />
                <path
                    d="M132.5 0.8C133.614 0.8 134.682 1.2425 135.47 2.03015C136.258 2.8178 136.7 3.88609 136.7 5V35C136.7 36.1139 136.258 37.1822 135.47 37.9698C134.682 38.7575 133.614 39.2 132.5 39.2H7.5C6.38609 39.2 5.3178 38.7575 4.53015 37.9698C3.7425 37.1822 3.3 36.1139 3.3 35V5C3.3 3.88609 3.7425 2.8178 4.53015 2.03015C5.3178 1.2425 6.38609 0.8 7.5 0.8H132.5ZM132.5 0H7.5C6.17392 0 4.90215 0.526784 3.96447 1.46447C3.02678 2.40215 2.5 3.67392 2.5 5V35C2.5 36.3261 3.02678 37.5979 3.96447 38.5355C4.90215 39.4732 6.17392 40 7.5 40H132.5C133.826 40 135.098 39.4732 136.036 38.5355C136.973 37.5979 137.5 36.3261 137.5 35V5C137.5 3.67392 136.973 2.40215 136.036 1.46447C135.098 0.526784 133.826 0 132.5 0Z"
                    fill="#A6A6A6" />
                <path
                    d="M49.9201 10.2405C49.9371 10.6073 49.8794 10.9737 49.7505 11.3175C49.6215 11.6613 49.4241 11.9753 49.1701 12.2405C48.8865 12.5351 48.544 12.7666 48.165 12.92C47.7859 13.0733 47.3788 13.1451 46.9701 13.1305C46.3501 13.1256 45.7453 12.9379 45.2315 12.5909C44.7177 12.2438 44.3178 11.7528 44.0818 11.1794C43.8458 10.606 43.7843 9.97573 43.905 9.36755C44.0257 8.75937 44.3231 8.20032 44.7601 7.76046C45.0473 7.46725 45.3916 7.23608 45.7718 7.08128C46.1519 6.92647 46.5598 6.85132 46.9701 6.86046C47.3929 6.85905 47.8115 6.94413 48.2001 7.11046C48.562 7.25642 48.8841 7.48602 49.1401 7.78046L48.6101 8.31046C48.4105 8.07306 48.1585 7.88532 47.8738 7.7621C47.5892 7.63888 47.2798 7.58354 46.9701 7.60046C46.6578 7.59893 46.3483 7.66049 46.0603 7.78145C45.7723 7.90241 45.5117 8.08028 45.2942 8.3044C45.0766 8.52852 44.9065 8.79426 44.7941 9.08571C44.6817 9.37715 44.6293 9.68829 44.6401 10.0005C44.6336 10.4666 44.7652 10.9243 45.0184 11.3157C45.2717 11.7071 45.6352 12.0147 46.063 12.1998C46.4909 12.3848 46.964 12.439 47.4227 12.3555C47.8813 12.272 48.3049 12.0545 48.6401 11.7305C48.9478 11.397 49.1253 10.964 49.1401 10.5105H46.9701V9.79046H49.8801C49.9068 9.93898 49.9202 10.0896 49.9201 10.2405ZM54.5001 7.74046H51.8001V9.64046H54.2601V10.3605H51.8001V12.2605H54.5001V13.0005H51.0001V7.00046H54.5001V7.74046ZM57.7801 13.0005H57.0101V7.74046H55.3301V7.00046H59.5001V7.74046H57.7801V13.0005ZM62.4401 13.0005V7.00046H63.2101V13.0005H62.4401ZM66.6301 13.0005H65.8601V7.74046H64.1801V7.00046H68.3001V7.74046H66.6301V13.0005ZM76.1101 12.2205C75.5255 12.8018 74.7346 13.1282 73.9101 13.1282C73.0857 13.1282 72.2947 12.8018 71.7101 12.2205C71.1419 11.619 70.8253 10.8229 70.8253 9.99546C70.8253 9.16802 71.1419 8.37194 71.7101 7.77046C71.9983 7.48021 72.341 7.24984 72.7186 7.09263C73.0962 6.93543 73.5011 6.85449 73.9101 6.85449C74.3191 6.85449 74.7241 6.93543 75.1016 7.09263C75.4792 7.24984 75.822 7.48021 76.1101 7.77046C76.6806 8.37079 76.9987 9.16731 76.9987 9.99546C76.9987 10.8237 76.6806 11.6202 76.1101 12.2205ZM72.2801 11.7205C72.713 12.1516 73.2991 12.3937 73.9101 12.3937C74.5211 12.3937 75.1072 12.1516 75.5401 11.7205C75.9674 11.2495 76.204 10.6364 76.204 10.0005C76.204 9.36457 75.9674 8.75144 75.5401 8.28046C75.1072 7.84934 74.5211 7.60729 73.9101 7.60729C73.2991 7.60729 72.713 7.84934 72.2801 8.28046C71.8529 8.75144 71.6162 9.36457 71.6162 10.0005C71.6162 10.6364 71.8529 11.2495 72.2801 11.7205ZM78.0801 13.0005V7.00046H79.0201L81.9401 11.6705V7.00046H82.7101V13.0005H81.9101L78.8601 8.11046V13.0005H78.0801Z"
                    fill="white" stroke="white" stroke-width="0.2" stroke-miterlimit="10" />
                <path
                    d="M70.64 21.7501C69.8003 21.754 68.9806 22.0067 68.2843 22.4761C67.588 22.9454 67.0464 23.6106 66.7278 24.3875C66.4092 25.1644 66.3279 26.0183 66.4941 26.8414C66.6604 27.6645 67.0667 28.4199 67.6619 29.0123C68.257 29.6047 69.0143 30.0075 69.8382 30.1698C70.6621 30.3322 71.5156 30.2469 72.291 29.9246C73.0664 29.6024 73.729 29.0576 74.1951 28.3592C74.6612 27.6607 74.91 26.8398 74.91 26.0001C74.9182 25.438 74.8131 24.8801 74.6012 24.3594C74.3892 23.8388 74.0747 23.3661 73.6763 22.9696C73.2778 22.5731 72.8037 22.2607 72.2821 22.0512C71.7605 21.8417 71.202 21.7393 70.64 21.7501ZM70.64 28.5801C70.1236 28.6162 69.6082 28.4961 69.161 28.2355C68.7137 27.9748 68.3552 27.5856 68.132 27.1185C67.9089 26.6514 67.8314 26.128 67.9097 25.6162C67.988 25.1045 68.2184 24.6282 68.571 24.2491C68.9236 23.8701 69.382 23.6059 69.8868 23.4909C70.3915 23.3759 70.9192 23.4153 71.4012 23.6042C71.8832 23.793 72.2973 24.1225 72.5895 24.5498C72.8818 24.9771 73.0387 25.4824 73.04 26.0001C73.0561 26.3281 73.0064 26.656 72.8937 26.9645C72.7811 27.273 72.6078 27.5558 72.3841 27.7963C72.1605 28.0367 71.8909 28.23 71.5914 28.3646C71.2918 28.4992 70.9683 28.5725 70.64 28.5801ZM61.33 21.7501C60.4899 21.7521 59.6692 22.003 58.9716 22.4712C58.274 22.9394 57.7308 23.6038 57.4107 24.3806C57.0905 25.1574 57.0078 26.0116 57.1729 26.8353C57.338 27.6591 57.7436 28.4154 58.3383 29.0088C58.9331 29.6022 59.6904 30.006 60.5145 30.1692C61.3387 30.3323 62.1927 30.2476 62.9687 29.9256C63.7447 29.6037 64.4079 29.0589 64.8744 28.3602C65.341 27.6615 65.59 26.8402 65.59 26.0001C65.5982 25.438 65.4931 24.8801 65.2812 24.3594C65.0692 23.8388 64.7547 23.3661 64.3563 22.9696C63.9578 22.5731 63.4837 22.2607 62.9621 22.0512C62.4405 21.8417 61.882 21.7393 61.32 21.7501H61.33ZM61.33 28.5801C60.8133 28.6182 60.2971 28.5 59.8486 28.2407C59.4001 27.9813 59.0401 27.593 58.8154 27.1262C58.5906 26.6594 58.5117 26.1357 58.5887 25.6234C58.6658 25.1111 58.8952 24.6339 59.2473 24.2538C59.5994 23.8737 60.0577 23.6085 60.5627 23.4925C61.0676 23.3766 61.5958 23.4154 62.0784 23.6038C62.561 23.7922 62.9757 24.1216 63.2685 24.549C63.5613 24.9764 63.7186 25.482 63.72 26.0001C63.7361 26.3281 63.6864 26.656 63.5737 26.9645C63.4611 27.273 63.2878 27.5558 63.0641 27.7963C62.8405 28.0367 62.5709 28.23 62.2714 28.3646C61.9718 28.4992 61.6483 28.5725 61.32 28.5801H61.33ZM50.24 23.0601V24.8601H54.56C54.4923 25.7079 54.1399 26.5079 53.56 27.1301C53.1278 27.5703 52.6082 27.9152 52.0347 28.1426C51.4612 28.3699 50.8464 28.4747 50.23 28.4501C48.957 28.4501 47.7361 27.9444 46.8359 27.0442C45.9357 26.144 45.43 24.9231 45.43 23.6501C45.43 22.3771 45.9357 21.1562 46.8359 20.256C47.7361 19.3558 48.957 18.8501 50.23 18.8501C51.4478 18.8302 52.6238 19.2941 53.5 20.1401L54.77 18.8701C54.1785 18.2711 53.4728 17.797 52.6946 17.4758C51.9165 17.1545 51.0818 16.9928 50.24 17.0001C49.351 16.9655 48.4642 17.1107 47.6326 17.4271C46.8011 17.7434 46.042 18.2244 45.4008 18.8411C44.7596 19.4578 44.2494 20.1977 43.901 21.0163C43.5526 21.8349 43.373 22.7154 43.373 23.6051C43.373 24.4948 43.5526 25.3753 43.901 26.1939C44.2494 27.0125 44.7596 27.7523 45.4008 28.3691C46.042 28.9858 46.8011 29.4668 47.6326 29.7831C48.4642 30.0995 49.351 30.2447 50.24 30.2101C51.096 30.2488 51.9503 30.1037 52.7454 29.7846C53.5406 29.4655 54.2582 28.9797 54.85 28.3601C55.8977 27.209 56.4571 25.6959 56.41 24.1401C56.4132 23.7611 56.3797 23.3826 56.31 23.0101L50.24 23.0601ZM95.55 24.4601C95.2892 23.6928 94.8015 23.0229 94.1515 22.5389C93.5015 22.055 92.7198 21.7799 91.91 21.7501C91.363 21.749 90.8216 21.8602 90.3192 22.0766C89.8169 22.2931 89.3643 22.6103 88.9894 23.0086C88.6145 23.407 88.3253 23.8779 88.1396 24.3925C87.954 24.907 87.8759 25.4542 87.91 26.0001C87.8979 26.559 87.9985 27.1146 88.2059 27.6338C88.4133 28.1529 88.7232 28.625 89.1171 29.0217C89.5111 29.4184 89.9808 29.7316 90.4985 29.9427C91.0161 30.1537 91.571 30.2583 92.13 30.2501C92.8295 30.2539 93.519 30.0841 94.1368 29.756C94.7547 29.4279 95.2814 28.9517 95.67 28.3701L94.22 27.3701C94.0036 27.7309 93.6972 28.0293 93.3309 28.2361C92.9645 28.443 92.5507 28.5512 92.13 28.5501C91.6968 28.5666 91.2687 28.4524 90.9013 28.2223C90.534 27.9923 90.2443 27.657 90.07 27.2601L95.76 24.9101L95.55 24.4601ZM89.75 25.8801C89.7297 25.5708 89.7714 25.2605 89.8725 24.9675C89.9737 24.6745 90.1322 24.4046 90.339 24.1737C90.5457 23.9427 90.7965 23.7554 91.0765 23.6225C91.3566 23.4897 91.6604 23.4141 91.97 23.4001C92.2926 23.3788 92.6143 23.4528 92.8952 23.6128C93.1761 23.7728 93.4039 24.0118 93.55 24.3001L89.75 25.8801ZM85.13 30.0001H87V17.5001H85.13V30.0001ZM82.07 22.7001H82C81.7182 22.385 81.3729 22.133 80.9869 21.9607C80.6009 21.7883 80.1828 21.6995 79.76 21.7001C78.6672 21.7531 77.6367 22.2245 76.882 23.0167C76.1273 23.8088 75.7063 24.861 75.7063 25.9551C75.7063 27.0492 76.1273 28.1014 76.882 28.8935C77.6367 29.6857 78.6672 30.1571 79.76 30.2101C80.1838 30.2172 80.6039 30.1314 80.991 29.9586C81.378 29.7858 81.7224 29.5303 82 29.2101H82.06V29.8201C82.06 31.4501 81.19 32.3201 79.79 32.3201C79.3237 32.3092 78.8712 32.1598 78.4901 31.8909C78.1091 31.622 77.8166 31.2457 77.65 30.8101L76.02 31.4901C76.3268 32.2365 76.8496 32.8741 77.5213 33.3213C78.1931 33.7686 78.9831 34.0049 79.79 34.0001C81.98 34.0001 83.79 32.7101 83.79 29.5701V22.0001H82.07V22.7001ZM79.93 28.5801C79.285 28.5232 78.6846 28.2268 78.2473 27.7493C77.81 27.2717 77.5674 26.6476 77.5674 26.0001C77.5674 25.3525 77.81 24.7285 78.2473 24.2509C78.6846 23.7734 79.285 23.4769 79.93 23.4201C80.2498 23.4365 80.5631 23.5168 80.8515 23.6561C81.1398 23.7955 81.3973 23.9912 81.6089 24.2316C81.8204 24.472 81.9817 24.7524 82.0832 25.0561C82.1847 25.3598 82.2244 25.6808 82.2 26.0001C82.2273 26.3208 82.1893 26.6437 82.0882 26.9492C81.9871 27.2548 81.8251 27.5367 81.612 27.7779C81.3988 28.0191 81.139 28.2145 80.8482 28.3524C80.5574 28.4903 80.2416 28.5677 79.92 28.5801H79.93ZM104.31 17.5001H99.84V30.0001H101.71V25.2601H104.32C104.853 25.2984 105.388 25.2265 105.892 25.0488C106.396 24.8712 106.858 24.5916 107.249 24.2276C107.64 23.8636 107.952 23.4228 108.165 22.9329C108.379 22.443 108.489 21.9144 108.489 21.3801C108.489 20.8458 108.379 20.3172 108.165 19.8273C107.952 19.3374 107.64 18.8966 107.249 18.5326C106.858 18.1686 106.396 17.889 105.892 17.7114C105.388 17.5337 104.853 17.4618 104.32 17.5001H104.31ZM104.31 23.5001H101.7V19.2401H104.35C104.919 19.2401 105.464 19.4661 105.867 19.8684C106.269 20.2706 106.495 20.8162 106.495 21.3851C106.495 21.954 106.269 22.4996 105.867 22.9018C105.464 23.3041 104.919 23.5301 104.35 23.5301L104.31 23.5001ZM115.84 21.7001C115.159 21.6594 114.481 21.8185 113.89 22.1578C113.298 22.4971 112.819 23.0019 112.51 23.6101L114.17 24.3001C114.334 23.9984 114.582 23.7509 114.883 23.5875C115.185 23.4242 115.528 23.3521 115.87 23.3801C116.107 23.3524 116.348 23.3722 116.578 23.4384C116.807 23.5046 117.021 23.6159 117.208 23.7658C117.394 23.9157 117.548 24.1011 117.662 24.3113C117.776 24.5215 117.846 24.7523 117.87 24.9901V25.1201C117.269 24.8021 116.6 24.6372 115.92 24.6401C114.13 24.6401 112.32 25.6401 112.32 27.4501C112.338 27.836 112.433 28.2145 112.599 28.5631C112.765 28.9118 113 29.2235 113.289 29.4799C113.578 29.7363 113.916 29.9321 114.282 30.0558C114.648 30.1795 115.035 30.2286 115.42 30.2001C115.891 30.2339 116.362 30.1403 116.785 29.9292C117.207 29.7181 117.565 29.3971 117.82 29.0001H117.88V30.0001H119.68V25.1901C119.68 23.0001 118.02 21.7301 115.89 21.7301L115.84 21.7001ZM115.61 28.5501C115 28.5501 114.15 28.2401 114.15 27.4901C114.15 26.4901 115.21 26.1601 116.15 26.1601C116.744 26.1454 117.331 26.2905 117.85 26.5801C117.787 27.1215 117.531 27.6221 117.129 27.9896C116.727 28.3571 116.205 28.5668 115.66 28.5801L115.61 28.5501ZM126.24 22.0001L124.1 27.4201H124.04L121.82 22.0001H119.82L123.15 29.5801L121.25 33.7901H123.2L128.32 22.0001H126.24ZM109.43 30.0001H111.3V17.5001H109.43V30.0001Z"
                    fill="white" />
                <path
                    d="M12.9402 7.53973C12.6143 7.93084 12.4497 8.43153 12.4801 8.93973V31.0597C12.4497 31.5679 12.6143 32.0686 12.9402 32.4597L13.0102 32.5297L25.4002 20.1497V19.8597L13.0102 7.46973L12.9402 7.53973Z"
                    fill="url(#paint0_linear_4_7330)" />
                <path
                    d="M29.5004 24.2797L25.4004 20.1497V19.8597L29.5004 15.7197L29.5904 15.7697L34.5004 18.5597C35.9004 19.3497 35.9004 20.6497 34.5004 21.4497L29.6104 24.2297L29.5004 24.2797Z"
                    fill="url(#paint1_linear_4_7330)" />
                <path
                    d="M29.6204 24.22L25.4004 20L12.9404 32.46C13.2258 32.7109 13.5898 32.8541 13.9696 32.8651C14.3494 32.876 14.7211 32.754 15.0204 32.52L29.6304 24.22"
                    fill="url(#paint2_linear_4_7330)" />
                <path
                    d="M29.6197 15.7796L15.0097 7.47956C14.7103 7.24558 14.3387 7.12351 13.9589 7.13447C13.5791 7.14543 13.2151 7.28871 12.9297 7.53956L25.3997 19.9996L29.6197 15.7796Z"
                    fill="url(#paint3_linear_4_7330)" />
                <path opacity="0.2"
                    d="M29.5004 24.1299L15.0104 32.3799C14.7217 32.5958 14.3709 32.7124 14.0104 32.7124C13.6499 32.7124 13.2991 32.5958 13.0104 32.3799L12.9404 32.4499L13.0104 32.5199C13.2985 32.7373 13.6495 32.8549 14.0104 32.8549C14.3713 32.8549 14.7223 32.7373 15.0104 32.5199L29.6204 24.2199L29.5004 24.1299Z"
                    fill="black" />
                <path opacity="0.12"
                    d="M12.9402 32.32C12.6143 31.9289 12.4497 31.4282 12.4801 30.92V31.07C12.4497 31.5782 12.6143 32.0789 12.9402 32.47L13.0102 32.4L12.9402 32.32ZM34.5002 21.3L29.5002 24.13L29.5902 24.22L34.5002 21.44C34.7788 21.3091 35.0179 21.1071 35.1935 20.8543C35.3691 20.6014 35.4749 20.3068 35.5002 20C35.444 20.2787 35.3246 20.5408 35.1512 20.7662C34.9779 20.9915 34.7551 21.1742 34.5002 21.3Z"
                    fill="black" />
                <path opacity="0.25"
                    d="M15.0097 7.62043L34.4997 18.7004C34.7547 18.8262 34.9774 19.0089 35.1507 19.2342C35.3241 19.4596 35.4435 19.7217 35.4997 20.0004C35.4744 19.6936 35.3686 19.399 35.193 19.1461C35.0175 18.8933 34.7783 18.6913 34.4997 18.5604L15.0097 7.48043C13.6097 6.69043 12.4697 7.35043 12.4697 8.95043V9.10043C12.4997 7.49043 13.6197 6.83043 15.0097 7.62043Z"
                    fill="white" />
            </g>
        </g>
        <defs>
            <linearGradient id="paint0_linear_4_7330" x1="24.3002" y1="8.70973" x2="7.52014"
                y2="25.4897" gradientUnits="userSpaceOnUse">
                <stop stop-color="#00A0FF" />
                <stop offset="0.01" stop-color="#00A1FF" />
                <stop offset="0.26" stop-color="#00BEFF" />
                <stop offset="0.51" stop-color="#00D2FF" />
                <stop offset="0.76" stop-color="#00DFFF" />
                <stop offset="1" stop-color="#00E3FF" />
            </linearGradient>
            <linearGradient id="paint1_linear_4_7330" x1="36.3304" y1="19.9997" x2="12.1404"
                y2="19.9997" gradientUnits="userSpaceOnUse">
                <stop stop-color="#FFE000" />
                <stop offset="0.41" stop-color="#FFBD00" />
                <stop offset="0.78" stop-color="#FFA500" />
                <stop offset="1" stop-color="#FF9C00" />
            </linearGradient>
            <linearGradient id="paint2_linear_4_7330" x1="27.3304" y1="22.3" x2="4.57043" y2="45.05"
                gradientUnits="userSpaceOnUse">
                <stop stop-color="#FF3A44" />
                <stop offset="1" stop-color="#C31162" />
            </linearGradient>
            <linearGradient id="paint3_linear_4_7330" x1="9.79968" y1="0.179561" x2="19.9597"
                y2="10.3396" gradientUnits="userSpaceOnUse">
                <stop stop-color="#32A071" />
                <stop offset="0.07" stop-color="#2DA771" />
                <stop offset="0.48" stop-color="#15CF74" />
                <stop offset="0.8" stop-color="#06E775" />
                <stop offset="1" stop-color="#00F076" />
            </linearGradient>
            <clipPath id="clip0_4_7330">
                <rect width="140" height="40" fill="white" />
            </clipPath>
            <clipPath id="clip1_4_7330">
                <rect width="135" height="40" fill="white" transform="translate(2.5)" />
            </clipPath>
        </defs>
    </symbol>

    <symbol id="appStore" viewBox="0 0 120 40" fill="none">
        <g clip-path="url(#clip0_4_7346)">
            <path
                d="M110.303 0.00013H9.70265C9.33595 0.00013 8.97365 0.00013 8.60792 0.00213C8.30177 0.00413 7.99806 0.00994 7.68897 0.01483C7.01748 0.0227318 6.34758 0.0818063 5.68507 0.19154C5.02349 0.303663 4.38264 0.515046 3.78419 0.81854C3.18647 1.1246 2.64031 1.5223 2.16554 1.9972C1.68827 2.47077 1.29043 3.01815 0.987319 3.61829C0.683369 4.21724 0.472609 4.85907 0.362319 5.52161C0.25098 6.18332 0.191067 6.85265 0.183119 7.52361C0.173839 7.83021 0.172859 8.13783 0.167969 8.44447V31.5587C0.172859 31.8692 0.173839 32.17 0.183119 32.4806C0.19107 33.1516 0.250982 33.8209 0.362319 34.4825C0.472305 35.1455 0.683077 35.7877 0.987319 36.3868C1.29029 36.985 1.68819 37.5302 2.16554 38.0011C2.63851 38.4781 3.18502 38.8761 3.78419 39.1798C4.38264 39.4841 5.02342 39.6968 5.68507 39.8106C6.34769 39.9195 7.01753 39.9786 7.68897 39.9874C7.99806 39.9942 8.30177 39.9981 8.60792 39.9981C8.97364 40.0001 9.33597 40.0001 9.70265 40.0001H110.303C110.662 40.0001 111.027 40.0001 111.387 39.9981C111.691 39.9981 112.004 39.9942 112.309 39.9874C112.979 39.9791 113.647 39.92 114.309 39.8106C114.972 39.696 115.616 39.4834 116.217 39.1798C116.815 38.8759 117.361 38.478 117.834 38.0011C118.31 37.5284 118.709 36.9836 119.016 36.3868C119.318 35.7872 119.526 35.1451 119.635 34.4825C119.746 33.8208 119.808 33.1516 119.82 32.4806C119.824 32.17 119.824 31.8692 119.824 31.5587C119.832 31.1954 119.832 30.8341 119.832 30.4649V9.53626C119.832 9.17005 119.832 8.80677 119.824 8.44447C119.824 8.13783 119.824 7.83021 119.82 7.52357C119.808 6.85255 119.746 6.18337 119.635 5.52157C119.526 4.85941 119.317 4.21763 119.016 3.61825C118.398 2.41533 117.42 1.43616 116.217 0.81845C115.615 0.515697 114.972 0.30437 114.309 0.19145C113.648 0.0812328 112.979 0.0221378 112.309 0.01469C112.004 0.00981 111.691 0.00395 111.387 0.002C111.027 0 110.662 0.00013 110.303 0.00013Z"
                fill="#A6A6A6" />
            <path
                d="M8.61284 39.125C8.30816 39.125 8.01084 39.1211 7.70855 39.1143C7.08233 39.1061 6.45757 39.0516 5.83941 38.9512C5.263 38.8519 4.70461 38.6673 4.18267 38.4033C3.66551 38.1415 3.19382 37.7983 2.78567 37.3867C2.37161 36.98 2.02688 36.5082 1.76516 35.9902C1.50054 35.4688 1.31742 34.9099 1.22216 34.333C1.11928 33.7131 1.06362 33.0863 1.05566 32.458C1.04932 32.2471 1.04102 31.5449 1.04102 31.5449V8.44434C1.04102 8.44434 1.04986 7.75293 1.05571 7.5498C1.06333 6.92248 1.11867 6.29665 1.22124 5.67773C1.31667 5.09925 1.49994 4.53875 1.7647 4.01563C2.02546 3.49794 2.36827 3.02586 2.77984 2.61768C3.19094 2.20562 3.66414 1.8606 4.18218 1.59521C4.70292 1.33209 5.26025 1.14873 5.8355 1.05127C6.45569 0.949836 7.08262 0.894996 7.71101 0.88721L8.61333 0.875H111.382L112.295 0.8877C112.918 0.895099 113.539 0.94945 114.153 1.05029C114.734 1.14898 115.298 1.33362 115.824 1.59814C116.862 2.13299 117.707 2.97916 118.239 4.01807C118.5 4.53758 118.68 5.09351 118.774 5.66699C118.878 6.29099 118.936 6.92174 118.948 7.5542C118.951 7.8374 118.951 8.1416 118.951 8.44434C118.959 8.81934 118.959 9.17627 118.959 9.53613V30.4648C118.959 30.8281 118.959 31.1826 118.951 31.54C118.951 31.8652 118.951 32.1631 118.947 32.4697C118.936 33.0909 118.878 33.7104 118.776 34.3232C118.683 34.9043 118.501 35.4675 118.236 35.9932C117.973 36.5056 117.63 36.9733 117.221 37.3789C116.812 37.7927 116.34 38.1379 115.821 38.4014C115.296 38.6674 114.734 38.8527 114.153 38.9512C113.535 39.0522 112.91 39.1067 112.284 39.1143C111.991 39.1211 111.685 39.125 111.387 39.125L110.303 39.127L8.61284 39.125Z"
                fill="black" />
            <path
                d="M24.937 20.3013C24.9477 19.4666 25.1694 18.6483 25.5814 17.9223C25.9935 17.1964 26.5824 16.5864 27.2935 16.1492C26.8418 15.5041 26.2458 14.9731 25.553 14.5986C24.8602 14.224 24.0896 14.0162 23.3024 13.9916C21.6231 13.8153 19.9952 14.9964 19.1395 14.9964C18.2672 14.9964 16.9497 14.0091 15.531 14.0383C14.6133 14.0679 13.7189 14.3348 12.9351 14.8128C12.1512 15.2909 11.5045 15.9638 11.058 16.7661C9.12404 20.1145 10.5666 25.0356 12.4192 27.7422C13.3461 29.0676 14.4294 30.548 15.8469 30.4955C17.2339 30.438 17.752 29.611 19.4263 29.611C21.085 29.611 21.5711 30.4955 23.0173 30.4621C24.5057 30.438 25.4434 29.1309 26.3378 27.793C27.0038 26.8486 27.5162 25.8049 27.8562 24.7005C26.9915 24.3347 26.2536 23.7226 25.7345 22.9403C25.2153 22.158 24.938 21.2402 24.937 20.3013Z"
                fill="white" />
            <path
                d="M22.2055 12.2113C23.0171 11.2371 23.4169 9.98494 23.3201 8.7207C22.0802 8.85092 20.935 9.44348 20.1125 10.3803C19.7103 10.838 19.4023 11.3704 19.2061 11.9472C19.0099 12.524 18.9292 13.1337 18.9688 13.7417C19.5889 13.7481 20.2024 13.6137 20.7631 13.3486C21.3237 13.0835 21.8169 12.6946 22.2055 12.2113Z"
                fill="white" />
            <path
                d="M42.4707 27.1397H37.7373L36.6006 30.4961H34.5957L39.0791 18.0781H41.1621L45.6455 30.4961H43.6064L42.4707 27.1397ZM38.2275 25.5908H41.9795L40.1299 20.1436H40.0782L38.2275 25.5908Z"
                fill="white" />
            <path
                d="M55.3282 25.9695C55.3282 28.7829 53.8223 30.5905 51.5498 30.5905C50.9742 30.6207 50.4017 30.4881 49.8979 30.2079C49.3941 29.9278 48.9794 29.5114 48.7012 29.0065H48.6582V33.4909H46.7998V21.4421H48.5987V22.948H48.6328C48.9238 22.4455 49.3455 22.0313 49.8532 21.7495C50.3608 21.4676 50.9353 21.3287 51.5157 21.3474C53.8135 21.3474 55.3282 23.1638 55.3282 25.9695ZM53.418 25.9695C53.418 24.1365 52.4707 22.9314 51.0254 22.9314C49.6055 22.9314 48.6504 24.1618 48.6504 25.9695C48.6504 27.7937 49.6055 29.0154 51.0254 29.0154C52.4707 29.0154 53.418 27.8191 53.418 25.9695Z"
                fill="white" />
            <path
                d="M65.293 25.9694C65.293 28.7829 63.7871 30.5905 61.5147 30.5905C60.939 30.6206 60.3665 30.488 59.8627 30.2079C59.3589 29.9278 58.9442 29.5114 58.666 29.0065H58.623V33.4909H56.7646V21.4421H58.5635V22.948H58.5976C58.8886 22.4455 59.3103 22.0313 59.818 21.7495C60.3256 21.4676 60.9001 21.3287 61.4805 21.3474C63.7783 21.3474 65.293 23.1638 65.293 25.9694ZM63.3828 25.9694C63.3828 24.1364 62.4356 22.9314 60.9903 22.9314C59.5703 22.9314 58.6153 24.1618 58.6153 25.9694C58.6153 27.7937 59.5703 29.0153 60.9903 29.0153C62.4356 29.0153 63.3828 27.8191 63.3828 25.9694Z"
                fill="white" />
            <path
                d="M71.8789 27.0362C72.0166 28.2676 73.2129 29.0762 74.8477 29.0762C76.4141 29.0762 77.541 28.2676 77.541 27.1572C77.541 26.1934 76.8614 25.6162 75.252 25.2207L73.6426 24.833C71.3623 24.2822 70.3037 23.2158 70.3037 21.4854C70.3037 19.3428 72.1709 17.8711 74.8223 17.8711C77.4463 17.8711 79.2451 19.3428 79.3057 21.4854H77.4297C77.3174 20.2461 76.293 19.4981 74.7959 19.4981C73.2988 19.4981 72.2744 20.2549 72.2744 21.3565C72.2744 22.2344 72.9287 22.751 74.5293 23.1465L75.8975 23.4824C78.4453 24.0849 79.5039 25.1084 79.5039 26.9248C79.5039 29.248 77.6533 30.7031 74.71 30.7031C71.9561 30.7031 70.0967 29.2822 69.9766 27.0361L71.8789 27.0362Z"
                fill="white" />
            <path
                d="M83.5146 19.2998V21.4424H85.2363V22.9141H83.5146V27.9053C83.5146 28.6807 83.8594 29.042 84.6162 29.042C84.8206 29.0384 85.0247 29.0241 85.2275 28.999V30.4619C84.8873 30.5255 84.5414 30.5543 84.1953 30.5478C82.3623 30.5478 81.6475 29.8593 81.6475 28.1035V22.9141H80.3311V21.4424H81.6474V19.2998H83.5146Z"
                fill="white" />
            <path
                d="M86.2334 25.9697C86.2334 23.1211 87.9111 21.3311 90.5273 21.3311C93.1523 21.3311 94.8223 23.1211 94.8223 25.9697C94.8223 28.8262 93.1611 30.6084 90.5273 30.6084C87.8945 30.6084 86.2334 28.8262 86.2334 25.9697ZM92.9287 25.9697C92.9287 24.0156 92.0332 22.8623 90.5273 22.8623C89.0215 22.8623 88.1269 24.0244 88.1269 25.9697C88.1269 27.9316 89.0215 29.0762 90.5273 29.0762C92.0332 29.0762 92.9287 27.9316 92.9287 25.9697Z"
                fill="white" />
            <path
                d="M96.3545 21.442H98.127V22.983H98.17C98.2899 22.5017 98.5718 22.0764 98.9684 21.7785C99.365 21.4806 99.8521 21.3284 100.348 21.3473C100.562 21.3465 100.775 21.3698 100.984 21.4166V23.1549C100.714 23.0723 100.432 23.0343 100.149 23.0426C99.8794 23.0316 99.6103 23.0792 99.3604 23.1821C99.1106 23.285 98.886 23.4408 98.702 23.6386C98.518 23.8365 98.3791 24.0719 98.2946 24.3286C98.2102 24.5852 98.1823 24.8571 98.2129 25.1256V30.4957H96.3545L96.3545 21.442Z"
                fill="white" />
            <path
                d="M109.553 27.8369C109.303 29.4805 107.702 30.6084 105.654 30.6084C103.021 30.6084 101.386 28.8437 101.386 26.0127C101.386 23.1729 103.029 21.3311 105.576 21.3311C108.081 21.3311 109.656 23.0518 109.656 25.7969V26.4336H103.262V26.5459C103.232 26.8791 103.274 27.2148 103.384 27.5306C103.494 27.8464 103.67 28.1352 103.901 28.3778C104.131 28.6203 104.41 28.8111 104.72 28.9374C105.03 29.0637 105.363 29.1226 105.697 29.1103C106.136 29.1515 106.577 29.0498 106.954 28.8203C107.331 28.5909 107.623 28.246 107.788 27.8369L109.553 27.8369ZM103.271 25.1348H107.797C107.814 24.8352 107.768 24.5354 107.663 24.2541C107.559 23.9729 107.397 23.7164 107.189 23.5006C106.98 23.2849 106.729 23.1145 106.452 23.0003C106.174 22.8861 105.876 22.8305 105.576 22.8369C105.274 22.8351 104.974 22.8933 104.694 23.008C104.413 23.1227 104.159 23.2918 103.945 23.5054C103.73 23.7191 103.56 23.973 103.445 24.2527C103.329 24.5323 103.27 24.8321 103.271 25.1348Z"
                fill="white" />
            <path
                d="M37.9941 8.7304C38.3838 8.70244 38.7747 8.7613 39.1388 8.90274C39.5029 9.04417 39.8311 9.26465 40.0997 9.54828C40.3683 9.8319 40.5706 10.1716 40.692 10.5429C40.8134 10.9141 40.8509 11.3077 40.8018 11.6952C40.8018 13.6015 39.7715 14.6972 37.9941 14.6972H35.8389V8.7304H37.9941ZM36.7656 13.8534H37.8906C38.169 13.87 38.4476 13.8244 38.7062 13.7198C38.9647 13.6152 39.1967 13.4542 39.3852 13.2487C39.5737 13.0431 39.7139 12.7981 39.7958 12.5315C39.8777 12.2648 39.899 11.9833 39.8584 11.7074C39.8961 11.4326 39.8725 11.1528 39.7894 10.8881C39.7063 10.6235 39.5657 10.3805 39.3776 10.1765C39.1896 9.97261 38.9587 9.8128 38.7016 9.70856C38.4445 9.60433 38.1676 9.55824 37.8906 9.57361H36.7656V13.8534Z"
                fill="white" />
            <path
                d="M41.8489 12.4438C41.8206 12.1479 41.8545 11.8493 41.9483 11.5672C42.0421 11.2852 42.1939 11.0258 42.3938 10.8059C42.5938 10.5859 42.8375 10.4101 43.1093 10.2898C43.3812 10.1696 43.6752 10.1074 43.9724 10.1074C44.2697 10.1074 44.5637 10.1696 44.8356 10.2898C45.1074 10.4101 45.3511 10.5859 45.5511 10.8059C45.751 11.0258 45.9028 11.2852 45.9966 11.5672C46.0904 11.8493 46.1243 12.1479 46.096 12.4438C46.1248 12.74 46.0914 13.039 45.9978 13.3215C45.9042 13.6041 45.7525 13.8639 45.5525 14.0843C45.3525 14.3047 45.1086 14.4808 44.8365 14.6014C44.5644 14.7219 44.2701 14.7842 43.9724 14.7842C43.6748 14.7842 43.3805 14.7219 43.1084 14.6014C42.8362 14.4808 42.5924 14.3047 42.3924 14.0843C42.1924 13.8639 42.0407 13.6041 41.9471 13.3215C41.8535 13.039 41.8201 12.74 41.8489 12.4438ZM45.1819 12.4438C45.1819 11.4677 44.7434 10.8969 43.9739 10.8969C43.2015 10.8969 42.7669 11.4677 42.7669 12.4438C42.7669 13.4277 43.2015 13.9941 43.9739 13.9941C44.7435 13.9941 45.1819 13.4238 45.1819 12.4438Z"
                fill="white" />
            <path
                d="M51.7412 14.6973H50.8193L49.8887 11.3809H49.8184L48.8916 14.6973H47.9785L46.7373 10.1943H47.6387L48.4453 13.6303H48.5117L49.4375 10.1943H50.29L51.2158 13.6303H51.2861L52.0889 10.1943H52.9775L51.7412 14.6973Z"
                fill="white" />
            <path
                d="M54.0215 10.1939H54.877V10.9092H54.9434C55.056 10.6523 55.246 10.4369 55.4869 10.2931C55.7278 10.1493 56.0075 10.0842 56.2871 10.107C56.5062 10.0905 56.7262 10.1235 56.9308 10.2036C57.1354 10.2837 57.3194 10.4088 57.469 10.5697C57.6187 10.7305 57.7303 10.923 57.7955 11.1328C57.8607 11.3426 57.8779 11.5644 57.8457 11.7818V14.6968H56.957V12.0049C56.957 11.2813 56.6426 10.9214 55.9854 10.9214C55.8366 10.9145 55.6881 10.9398 55.55 10.9957C55.412 11.0515 55.2876 11.1365 55.1855 11.2449C55.0834 11.3533 55.0059 11.4825 54.9584 11.6236C54.9108 11.7647 54.8944 11.9145 54.9102 12.0625V14.6968H54.0215L54.0215 10.1939Z"
                fill="white" />
            <path d="M59.2617 8.43652H60.1504V14.6973H59.2617V8.43652Z" fill="white" />
            <path
                d="M61.386 12.4439C61.3577 12.1479 61.3916 11.8494 61.4854 11.5673C61.5793 11.2852 61.7311 11.0259 61.9311 10.8059C62.131 10.5859 62.3747 10.4101 62.6466 10.2898C62.9185 10.1696 63.2125 10.1074 63.5098 10.1074C63.8071 10.1074 64.1011 10.1696 64.3729 10.2898C64.6448 10.4101 64.8885 10.5859 65.0885 10.8059C65.2885 11.0259 65.4402 11.2852 65.5341 11.5673C65.628 11.8494 65.6618 12.1479 65.6336 12.4439C65.6624 12.7401 65.6289 13.0391 65.5353 13.3216C65.4416 13.6042 65.29 13.864 65.0899 14.0844C64.8899 14.3048 64.646 14.4809 64.3739 14.6014C64.1017 14.722 63.8074 14.7842 63.5098 14.7842C63.2121 14.7842 62.9178 14.722 62.6457 14.6014C62.3735 14.4809 62.1296 14.3048 61.9296 14.0844C61.7296 13.864 61.5779 13.6042 61.4843 13.3216C61.3907 13.0391 61.3572 12.7401 61.386 12.4439ZM64.719 12.4439C64.719 11.4678 64.2805 10.897 63.511 10.897C62.7385 10.897 62.304 11.4678 62.304 12.4439C62.304 13.4278 62.7386 13.9942 63.511 13.9942C64.2805 13.9942 64.719 13.4239 64.719 12.4439Z"
                fill="white" />
            <path
                d="M66.5684 13.4238C66.5684 12.6133 67.1719 12.146 68.2432 12.0796L69.4629 12.0093V11.6206C69.4629 11.145 69.1484 10.8765 68.541 10.8765C68.0449 10.8765 67.7012 11.0586 67.6025 11.377H66.7422C66.833 10.6035 67.5606 10.1074 68.582 10.1074C69.7109 10.1074 70.3477 10.6694 70.3477 11.6206V14.6973H69.4922V14.0645H69.4219C69.2792 14.2914 69.0788 14.4765 68.8411 14.6007C68.6035 14.7249 68.3372 14.7838 68.0693 14.7715C67.8803 14.7911 67.6892 14.7709 67.5085 14.7122C67.3277 14.6536 67.1613 14.5576 67.0199 14.4307C66.8784 14.3037 66.7652 14.1485 66.6874 13.9751C66.6097 13.8017 66.5691 13.6139 66.5684 13.4238ZM69.4629 13.0391V12.6626L68.3633 12.7329C67.7432 12.7744 67.4619 12.9853 67.4619 13.3823C67.4619 13.7876 67.8135 14.0234 68.2969 14.0234C68.4386 14.0378 68.5816 14.0235 68.7176 13.9814C68.8536 13.9393 68.9798 13.8703 69.0886 13.7784C69.1974 13.6866 69.2866 13.5738 69.3509 13.4468C69.4152 13.3198 69.4533 13.1811 69.4629 13.0391Z"
                fill="white" />
            <path
                d="M71.5156 12.4439C71.5156 11.021 72.2471 10.1196 73.3848 10.1196C73.6662 10.1067 73.9455 10.1741 74.19 10.314C74.4345 10.4539 74.6342 10.6605 74.7656 10.9096H74.832V8.43652H75.7207V14.6973H74.8691V13.9858H74.7988C74.6572 14.2333 74.4506 14.4374 74.2014 14.5758C73.9521 14.7143 73.6697 14.782 73.3848 14.7715C72.2393 14.7715 71.5156 13.8701 71.5156 12.4439ZM72.4336 12.4439C72.4336 13.3989 72.8838 13.9737 73.6368 13.9737C74.3858 13.9737 74.8487 13.3907 74.8487 12.4478C74.8487 11.5093 74.3809 10.918 73.6368 10.918C72.8887 10.918 72.4336 11.4966 72.4336 12.4439Z"
                fill="white" />
            <path
                d="M79.3977 12.4438C79.3694 12.1479 79.4033 11.8493 79.4971 11.5672C79.591 11.2852 79.7427 11.0258 79.9427 10.8059C80.1426 10.5859 80.3863 10.4101 80.6582 10.2898C80.93 10.1696 81.224 10.1074 81.5213 10.1074C81.8185 10.1074 82.1125 10.1696 82.3844 10.2898C82.6562 10.4101 82.8999 10.5859 83.0999 10.8059C83.2998 11.0258 83.4516 11.2852 83.5454 11.5672C83.6393 11.8493 83.6731 12.1479 83.6448 12.4438C83.6737 12.74 83.6402 13.039 83.5466 13.3215C83.453 13.6041 83.3014 13.8639 83.1014 14.0843C82.9014 14.3047 82.6575 14.4808 82.3854 14.6014C82.1132 14.7219 81.8189 14.7842 81.5213 14.7842C81.2237 14.7842 80.9293 14.7219 80.6572 14.6014C80.3851 14.4808 80.1412 14.3047 79.9412 14.0843C79.7412 13.8639 79.5895 13.6041 79.4959 13.3215C79.4023 13.039 79.3689 12.74 79.3977 12.4438ZM82.7307 12.4438C82.7307 11.4677 82.2923 10.8969 81.5227 10.8969C80.7503 10.8969 80.3157 11.4677 80.3157 12.4438C80.3157 13.4277 80.7503 13.9941 81.5227 13.9941C82.2923 13.9941 82.7307 13.4238 82.7307 12.4438Z"
                fill="white" />
            <path
                d="M84.8369 10.1939H85.6924V10.9092H85.7588C85.8715 10.6523 86.0615 10.4369 86.3023 10.2931C86.5432 10.1493 86.8229 10.0842 87.1025 10.107C87.3216 10.0905 87.5416 10.1235 87.7462 10.2036C87.9508 10.2837 88.1348 10.4088 88.2845 10.5697C88.4342 10.7305 88.5457 10.923 88.6109 11.1328C88.6761 11.3426 88.6933 11.5644 88.6611 11.7818V14.6968H87.7725V12.0049C87.7725 11.2813 87.458 10.9214 86.8008 10.9214C86.652 10.9145 86.5035 10.9398 86.3655 10.9957C86.2274 11.0515 86.1031 11.1365 86.0009 11.2449C85.8988 11.3533 85.8213 11.4825 85.7738 11.6236C85.7263 11.7647 85.7098 11.9145 85.7256 12.0625V14.6968H84.8369V10.1939Z"
                fill="white" />
            <path
                d="M93.6826 9.07324V10.2148H94.6582V10.9634H93.6826V13.2788C93.6826 13.7505 93.877 13.957 94.3193 13.957C94.4326 13.9567 94.5457 13.9498 94.6582 13.9365V14.6768C94.4986 14.7053 94.3369 14.7205 94.1748 14.7222C93.1865 14.7222 92.793 14.3745 92.793 13.5063V10.9633H92.0781V10.2148H92.793V9.07324H93.6826Z"
                fill="white" />
            <path
                d="M95.873 8.43652H96.7539V10.918H96.8242C96.9423 10.6587 97.1376 10.4421 97.3833 10.2977C97.629 10.1534 97.9132 10.0883 98.1972 10.1113C98.4152 10.0995 98.6331 10.1359 98.8353 10.2179C99.0376 10.2999 99.2193 10.4256 99.3674 10.586C99.5155 10.7463 99.6265 10.9373 99.6922 11.1455C99.758 11.3536 99.7771 11.5737 99.748 11.79V14.6973H98.8584V12.0093C98.8584 11.29 98.5234 10.9258 97.8955 10.9258C97.7428 10.9132 97.5892 10.9342 97.4454 10.9873C97.3016 11.0404 97.1712 11.1242 97.0632 11.2329C96.9552 11.3417 96.8723 11.4727 96.8202 11.6168C96.7681 11.761 96.7482 11.9147 96.7618 12.0674V14.6973H95.8731L95.873 8.43652Z"
                fill="white" />
            <path
                d="M104.929 13.4815C104.809 13.8931 104.547 14.249 104.19 14.4872C103.834 14.7253 103.405 14.8305 102.978 14.7842C102.682 14.7921 102.387 14.7353 102.114 14.6177C101.842 14.5002 101.598 14.3248 101.4 14.1036C101.202 13.8825 101.055 13.6209 100.968 13.3371C100.881 13.0533 100.858 12.754 100.898 12.46C100.859 12.1652 100.883 11.8652 100.969 11.5805C101.056 11.2959 101.203 11.0331 101.399 10.81C101.596 10.587 101.839 10.4088 102.11 10.2876C102.382 10.1664 102.677 10.105 102.974 10.1075C104.227 10.1075 104.983 10.9635 104.983 12.3775V12.6876H101.803V12.7374C101.789 12.9026 101.81 13.069 101.864 13.2257C101.918 13.3825 102.005 13.5262 102.118 13.6476C102.231 13.7691 102.368 13.8656 102.52 13.931C102.672 13.9964 102.837 14.0292 103.003 14.0274C103.215 14.0529 103.431 14.0146 103.621 13.9174C103.812 13.8202 103.97 13.6685 104.074 13.4815L104.929 13.4815ZM101.803 12.0303H104.078C104.089 11.8792 104.068 11.7274 104.017 11.5847C103.967 11.442 103.886 11.3115 103.782 11.2016C103.677 11.0918 103.551 11.005 103.411 10.9468C103.271 10.8886 103.121 10.8604 102.969 10.8638C102.816 10.8619 102.663 10.8908 102.521 10.9487C102.378 11.0067 102.249 11.0925 102.14 11.2012C102.032 11.3099 101.946 11.4393 101.888 11.5817C101.83 11.7241 101.801 11.8766 101.803 12.0303Z"
                fill="white" />
        </g>
        <defs>
            <clipPath id="clip0_4_7346">
                <rect width="119.664" height="40" fill="white" transform="translate(0.167969)" />
            </clipPath>
        </defs>
    </symbol>

    <symbol id="arrow" viewBox="0 0 15 14" fill="none">
        <path fill-rule="evenodd" clip-rule="evenodd"
            d="M2.00021 4.35763C2.17106 4.18678 2.44808 4.18678 2.61893 4.35763L7.45644 9.19517C7.51343 9.25211 7.60571 9.25211 7.6627 9.19517L12.5002 4.35763C12.6711 4.18678 12.9481 4.18678 13.1189 4.35763C13.2898 4.52848 13.2898 4.8055 13.1189 4.97635L8.28138 9.81386C7.88274 10.2125 7.2364 10.2125 6.83775 9.81386L2.00021 4.97635C1.82936 4.8055 1.82936 4.52848 2.00021 4.35763Z"
            fill="#212121" stroke="#212121" stroke-width="1.16667" />
    </symbol>

    <symbol id="arrows" viewBox="0 0 19 18" fill="none">
        <g clip-path="url(#clip0_2_5951)">
            <g clip-path="url(#clip1_2_5951)">
                <mask id="mask0_2_5951" style="mask-type:luminance" maskUnits="userSpaceOnUse" x="0"
                    y="0" width="19" height="18">
                    <path d="M0.400391 18L18.4004 18L18.4004 0L0.400391 0L0.400391 18Z" fill="white" />
                </mask>
                <g mask="url(#mask0_2_5951)">
                    <path
                        d="M0.400391 17.2503C0.400391 17.4492 0.479408 17.64 0.620059 17.7806C0.760712 17.9213 0.951478 18.0003 1.15039 18.0003H6.02539C6.1737 18.0003 6.31867 17.9563 6.44198 17.8739C6.56529 17.7914 6.66139 17.6743 6.71815 17.5373C6.7749 17.4003 6.78975 17.2495 6.76083 17.104C6.7319 16.9586 6.6605 16.8249 6.55564 16.72L4.91389 15.0753C4.89643 15.0579 4.88257 15.0372 4.87312 15.0144C4.86367 14.9916 4.8588 14.9672 4.8588 14.9425C4.8588 14.9179 4.86367 14.8935 4.87312 14.8707C4.88257 14.8479 4.89643 14.8272 4.91389 14.8098L8.18839 11.5391C8.36423 11.3632 8.46301 11.1247 8.46301 10.8761C8.46301 10.6274 8.36423 10.3889 8.18839 10.213C8.01255 10.0372 7.77406 9.93848 7.52539 9.93848C7.27672 9.93848 7.03823 10.0372 6.86239 10.213L3.58789 13.4875C3.57047 13.505 3.54978 13.5189 3.527 13.5283C3.50422 13.5378 3.4798 13.5426 3.45514 13.5426C3.43048 13.5426 3.40605 13.5378 3.38328 13.5283C3.3605 13.5189 3.33981 13.505 3.32239 13.4875L1.68064 11.8458C1.61107 11.776 1.52844 11.7206 1.43745 11.6828C1.34647 11.645 1.24893 11.6254 1.15039 11.6253C1.0518 11.625 0.95414 11.6444 0.863141 11.6823C0.726127 11.7391 0.609033 11.8353 0.526665 11.9586C0.444297 12.082 0.400354 12.227 0.400391 12.3753L0.400391 17.2503Z"
                        fill="#00798A" />
                    <path
                        d="M17.6505 4.26186e-07L12.7755 0C12.6272 3.14583e-05 12.4822 0.0440349 12.3589 0.126449C12.2356 0.208862 12.1395 0.325985 12.0827 0.463009C12.026 0.600034 12.0111 0.750809 12.0401 0.896273C12.069 1.04174 12.1404 1.17536 12.2453 1.28025L13.887 2.925C13.9044 2.94235 13.9183 2.96298 13.9277 2.9857C13.9372 3.00842 13.942 3.03277 13.942 3.05738C13.942 3.08198 13.9372 3.10634 13.9277 3.12905C13.9183 3.15177 13.9044 3.1724 13.887 3.18975L10.6125 6.46425C10.5254 6.55132 10.4564 6.65468 10.4092 6.76844C10.3621 6.88219 10.3379 7.00412 10.3379 7.12725C10.3379 7.25038 10.3621 7.37231 10.4092 7.48606C10.4564 7.59982 10.5254 7.70318 10.6125 7.79025C10.6996 7.87732 10.8029 7.94638 10.9167 7.9935C11.0304 8.04062 11.1524 8.06487 11.2755 8.06487C11.3986 8.06487 11.5206 8.04062 11.6343 7.9935C11.7481 7.94638 11.8514 7.87732 11.9385 7.79025L15.213 4.51425C15.2304 4.49679 15.2511 4.48294 15.2739 4.47348C15.2967 4.46403 15.3211 4.45917 15.3457 4.45917C15.3704 4.45917 15.3948 4.46403 15.4176 4.47348C15.4404 4.48294 15.4611 4.49679 15.4785 4.51425L17.1202 6.156C17.2252 6.2609 17.3589 6.33232 17.5044 6.36122C17.6499 6.39013 17.8008 6.37521 17.9378 6.31837C18.0749 6.26152 18.192 6.1653 18.2744 6.04188C18.3567 5.91845 18.4006 5.77338 18.4005 5.625V0.750001C18.4005 0.551088 18.3215 0.360322 18.1808 0.21967C18.0402 0.0790171 17.8494 4.43576e-07 17.6505 4.26186e-07Z"
                        fill="#00798A" />
                </g>
            </g>
        </g>
        <defs>
            <clipPath id="clip0_2_5951">
                <rect width="18" height="18" fill="white" transform="translate(0.400391)" />
            </clipPath>
            <clipPath id="clip1_2_5951">
                <rect width="18" height="18" fill="white" transform="translate(0.400391)" />
            </clipPath>
        </defs>
    </symbol>

    <symbol id="close" viewBox="0 0 15 15" fill="none">
        <rect width="15" height="15" fill="white" />
        <path d="M3.25 3.25L11.75 11.75L3.25 3.25ZM11.75 3.25L3.25 11.75L11.75 3.25Z" fill="#00AECD" />
        <path d="M3.25 3.25L11.75 11.75M11.75 3.25L3.25 11.75" stroke="#00AECD" stroke-width="1.25" />
    </symbol>
</svg>
